<svg width="941" height="295" viewBox="0 0 941 295" fill="none" xmlns="http://www.w3.org/2000/svg">
<g filter="url(#filter0_d_355_97)">
<path d="M257.869 125.259H244.25V95.1732C244.25 94.8172 244.695 94.3721 245.229 94.3721H256.89C257.513 94.3721 257.869 94.8172 257.869 95.1732V123.301V125.259ZM297.48 94.3721C298.103 94.3721 298.459 94.8172 298.459 95.1732V164.781C298.459 165.137 298.103 165.582 297.48 165.582H285.819C285.285 165.582 284.84 165.137 284.84 164.781V152.23H257.869V164.781C257.869 165.137 257.513 165.582 256.89 165.582H245.229C244.695 165.582 244.25 165.137 244.25 164.781V138.878H257.869V138.967H284.84V136.564V123.301V95.1732C284.84 94.8172 285.285 94.3721 285.819 94.3721H297.48ZM357.087 164.514C357.354 165.048 356.909 165.582 356.286 165.582H344.002C343.735 165.582 343.29 165.404 343.201 165.048L329.137 125.348L315.251 165.048C315.162 165.404 314.717 165.582 314.361 165.582H302.166C301.365 165.582 301.009 165.048 301.276 164.514L328.247 94.9062C328.514 94.1941 329.76 94.1941 330.027 94.9062L357.087 164.514ZM400.628 152.497H414.247V164.781C414.247 165.137 413.891 165.582 413.268 165.582H401.696C383.982 165.582 359.949 160.419 359.949 129.977C359.949 98.3777 384.25 94.3721 401.696 94.3721H413.268C413.891 94.3721 414.247 94.8172 414.247 95.1732V123.123H400.628V107.368C385.14 106.567 373.657 113.065 373.657 129.977C373.657 151.963 391.994 152.853 400.628 152.497ZM473.763 164.247C474.297 164.959 473.852 165.582 472.962 165.582H457.652C457.474 165.582 456.939 165.404 456.85 165.315L436.11 139.68C434.33 141.549 416.973 161.221 416.973 161.221V95.1732C416.973 94.8172 417.418 94.3721 417.952 94.3721H429.702C430.236 94.3721 430.592 94.8172 430.592 95.1732V127.574L457.385 94.6391C457.474 94.5501 458.008 94.3721 458.186 94.3721H472.695C473.674 94.3721 474.119 95.0842 473.496 95.7073L445.19 130.6L473.763 164.247ZM491.552 120.186H505.082V164.781C505.082 165.137 504.637 165.582 504.014 165.582H492.531C491.908 165.582 491.552 165.137 491.552 164.781V120.186ZM477.844 106.567C477.31 106.567 476.865 106.211 476.865 105.766V95.1732C476.865 94.8172 477.31 94.3721 477.844 94.3721H518.701C519.324 94.3721 519.68 94.8172 519.68 95.1732V105.766C519.68 106.211 519.324 106.567 518.701 106.567H477.844ZM558.924 107.635H572.632L550.379 165.137C550.112 165.76 549.044 165.76 548.688 165.137L521.895 95.4402C521.628 94.9062 521.984 94.3721 522.696 94.3721H534.802C535.247 94.3721 535.603 94.5501 535.692 94.9062L549.578 133.716L558.924 107.635ZM631.079 164.514C631.346 165.048 630.901 165.582 630.278 165.582H617.994C617.727 165.582 617.282 165.404 617.193 165.048L603.129 125.348L589.243 165.048C589.154 165.404 588.709 165.582 588.353 165.582H576.158C575.357 165.582 575.001 165.048 575.268 164.514L602.239 94.9062C602.506 94.1941 603.752 94.1941 604.019 94.9062L631.079 164.514ZM682.542 164.425C682.809 165.048 682.453 165.582 681.741 165.582H669.012C668.745 165.582 668.211 165.315 668.122 165.048L655.126 136.831H647.471V164.781C647.471 165.137 647.026 165.582 646.492 165.582H634.831C634.386 165.582 633.941 165.137 633.941 164.781V123.746H647.471H657.886C660.823 123.746 668.389 123.39 668.389 115.557C668.389 107.724 660.022 107.279 657.886 107.279H647.471H633.941V95.1732C633.941 94.8172 634.386 94.3721 634.831 94.3721H657.886C661.891 94.3721 681.919 94.5501 681.919 115.557C681.919 126.417 675.955 132.113 668.834 134.695C673.285 144.753 678.091 154.545 682.542 164.425ZM714.159 153.387C714.782 153.387 715.138 153.744 715.138 154.189V164.781C715.138 165.137 714.782 165.582 714.159 165.582H686.12C685.586 165.582 685.141 165.137 685.141 164.781V154.189C685.141 153.744 685.586 153.387 686.12 153.387H693.419V128.197V106.567V94.3721H707.038V106.567V128.197V153.387H714.159ZM731.295 120.186H744.825V164.781C744.825 165.137 744.38 165.582 743.757 165.582H732.274C731.651 165.582 731.295 165.137 731.295 164.781V120.186ZM717.587 106.567C717.053 106.567 716.608 106.211 716.608 105.766V95.1732C716.608 94.8172 717.053 94.3721 717.587 94.3721H758.444C759.067 94.3721 759.423 94.8172 759.423 95.1732V105.766C759.423 106.211 759.067 106.567 758.444 106.567H717.587Z" fill="white"/>
</g>
<path d="M284.382 198.296H286.659L289.449 204.936L290.094 206.542L290.601 204.936L291.627 202.514L289.778 198.296H291.924L292.68 200.303L293.385 198.296H295.53L293.681 202.514L294.727 204.989L295.359 206.542L295.846 204.963L298.649 198.296H300.926L296.385 208.582H294.319L293.404 206.542L292.661 204.561L291.917 206.542L290.989 208.582H288.923L284.382 198.296ZM302.276 197.671H304.224V201.409C304.632 201.185 305.086 201.007 305.586 200.876C306.09 200.744 306.619 200.678 307.172 200.678C307.812 200.678 308.387 200.773 308.896 200.961C309.409 201.15 309.844 201.422 310.199 201.777C310.554 202.128 310.826 202.556 311.015 203.061C311.208 203.565 311.305 204.133 311.305 204.765V208.582H309.363V204.844C309.363 204.476 309.304 204.14 309.186 203.837C309.067 203.53 308.894 203.267 308.666 203.048C308.438 202.828 308.159 202.659 307.83 202.541C307.505 202.418 307.137 202.357 306.724 202.357C306.229 202.357 305.768 202.436 305.342 202.593C304.917 202.751 304.544 202.951 304.224 203.192V208.582H302.276V197.671ZM313.121 204.673C313.121 204.147 313.229 203.644 313.444 203.166C313.659 202.683 313.968 202.258 314.371 201.889C314.775 201.521 315.269 201.227 315.852 201.007C316.44 200.788 317.107 200.678 317.853 200.678C318.594 200.678 319.261 200.79 319.854 201.014C320.45 201.233 320.955 201.536 321.367 201.922C321.784 202.308 322.102 202.762 322.321 203.284C322.545 203.807 322.657 204.366 322.657 204.963C322.657 205.037 322.655 205.118 322.65 205.206C322.65 205.289 322.646 205.366 322.637 205.436H315.293C315.376 205.669 315.51 205.882 315.694 206.075C315.883 206.268 316.118 206.435 316.398 206.575C316.679 206.715 317.004 206.825 317.372 206.904C317.741 206.979 318.149 207.016 318.597 207.016C319.044 207.016 319.489 206.97 319.932 206.878C320.376 206.781 320.799 206.661 321.203 206.516L321.861 208.003C321.606 208.122 321.347 208.227 321.084 208.319C320.825 208.407 320.553 208.481 320.268 208.543C319.987 208.6 319.691 208.644 319.38 208.674C319.073 208.705 318.748 208.72 318.406 208.72C317.533 208.72 316.767 208.615 316.109 208.405C315.451 208.194 314.9 207.907 314.457 207.542C314.014 207.178 313.68 206.75 313.457 206.259C313.233 205.768 313.121 205.239 313.121 204.673ZM320.591 203.916C320.52 203.701 320.411 203.502 320.262 203.317C320.117 203.129 319.935 202.966 319.715 202.83C319.496 202.69 319.241 202.58 318.952 202.501C318.662 202.422 318.344 202.383 317.998 202.383C317.629 202.383 317.293 202.425 316.991 202.508C316.688 202.591 316.423 202.703 316.194 202.844C315.966 202.984 315.775 203.146 315.622 203.331C315.473 203.515 315.363 203.71 315.293 203.916H320.591ZM324.756 200.817H326.704V201.935C327.134 201.615 327.588 201.339 328.067 201.106C328.545 200.874 329.021 200.696 329.495 200.573L330.067 202.357C329.317 202.431 328.657 202.6 328.086 202.863C327.52 203.122 327.06 203.488 326.704 203.962V208.582H324.756V200.817ZM331.153 204.673C331.153 204.147 331.261 203.644 331.476 203.166C331.691 202.683 332 202.258 332.404 201.889C332.807 201.521 333.301 201.227 333.884 201.007C334.472 200.788 335.139 200.678 335.885 200.678C336.626 200.678 337.293 200.79 337.886 201.014C338.482 201.233 338.987 201.536 339.399 201.922C339.816 202.308 340.134 202.762 340.354 203.284C340.577 203.807 340.689 204.366 340.689 204.963C340.689 205.037 340.687 205.118 340.683 205.206C340.683 205.289 340.678 205.366 340.669 205.436H333.325C333.408 205.669 333.542 205.882 333.726 206.075C333.915 206.268 334.15 206.435 334.431 206.575C334.711 206.715 335.036 206.825 335.405 206.904C335.773 206.979 336.181 207.016 336.629 207.016C337.076 207.016 337.521 206.97 337.965 206.878C338.408 206.781 338.831 206.661 339.235 206.516L339.893 208.003C339.638 208.122 339.38 208.227 339.116 208.319C338.857 208.407 338.585 208.481 338.3 208.543C338.019 208.6 337.723 208.644 337.412 208.674C337.105 208.705 336.78 208.72 336.438 208.72C335.565 208.72 334.799 208.615 334.141 208.405C333.483 208.194 332.932 207.907 332.489 207.542C332.046 207.178 331.713 206.75 331.489 206.259C331.265 205.768 331.153 205.239 331.153 204.673ZM338.623 203.916C338.552 203.701 338.443 203.502 338.294 203.317C338.149 203.129 337.967 202.966 337.747 202.83C337.528 202.69 337.274 202.58 336.984 202.501C336.694 202.422 336.376 202.383 336.03 202.383C335.661 202.383 335.326 202.425 335.023 202.508C334.72 202.591 334.455 202.703 334.227 202.844C333.998 202.984 333.808 203.146 333.654 203.331C333.505 203.515 333.395 203.71 333.325 203.916H338.623ZM347.244 198.296H349.343V208.582H347.244V198.296ZM351.166 204.732C351.166 204.114 351.282 203.556 351.515 203.061C351.748 202.561 352.068 202.135 352.476 201.784C352.888 201.429 353.375 201.157 353.937 200.968C354.503 200.775 355.115 200.678 355.773 200.678C356.054 200.678 356.33 200.696 356.602 200.731C356.879 200.766 357.142 200.814 357.392 200.876C357.646 200.937 357.883 201.012 358.103 201.1C358.326 201.183 358.524 201.275 358.695 201.376V197.664H360.643V208.582H358.695V207.852C358.524 207.97 358.322 208.082 358.089 208.187C357.857 208.293 357.607 208.385 357.339 208.464C357.072 208.543 356.793 208.604 356.503 208.648C356.218 208.696 355.935 208.72 355.654 208.72C354.996 208.72 354.391 208.624 353.838 208.431C353.29 208.238 352.818 207.966 352.423 207.615C352.028 207.264 351.719 206.845 351.495 206.358C351.276 205.866 351.166 205.325 351.166 204.732ZM353.213 204.732C353.213 205.044 353.274 205.338 353.397 205.614C353.524 205.891 353.704 206.134 353.937 206.345C354.174 206.551 354.457 206.715 354.786 206.838C355.119 206.957 355.492 207.016 355.905 207.016C356.168 207.016 356.431 206.992 356.694 206.944C356.958 206.891 357.21 206.818 357.451 206.726C357.697 206.634 357.925 206.522 358.136 206.391C358.351 206.259 358.537 206.112 358.695 205.95V203.258C358.497 203.1 358.289 202.966 358.07 202.857C357.85 202.747 357.627 202.657 357.398 202.587C357.17 202.517 356.94 202.466 356.707 202.436C356.475 202.4 356.249 202.383 356.03 202.383C355.582 202.383 355.183 202.444 354.832 202.567C354.485 202.686 354.191 202.85 353.95 203.061C353.713 203.271 353.531 203.519 353.404 203.804C353.277 204.09 353.213 204.399 353.213 204.732ZM362.663 204.673C362.663 204.147 362.771 203.644 362.986 203.166C363.201 202.683 363.51 202.258 363.914 201.889C364.317 201.521 364.811 201.227 365.394 201.007C365.982 200.788 366.649 200.678 367.395 200.678C368.137 200.678 368.803 200.79 369.396 201.014C369.992 201.233 370.497 201.536 370.909 201.922C371.326 202.308 371.644 202.762 371.864 203.284C372.087 203.807 372.199 204.366 372.199 204.963C372.199 205.037 372.197 205.118 372.193 205.206C372.193 205.289 372.188 205.366 372.179 205.436H364.835C364.918 205.669 365.052 205.882 365.236 206.075C365.425 206.268 365.66 206.435 365.941 206.575C366.221 206.715 366.546 206.825 366.915 206.904C367.283 206.979 367.691 207.016 368.139 207.016C368.586 207.016 369.032 206.97 369.475 206.878C369.918 206.781 370.341 206.661 370.745 206.516L371.403 208.003C371.148 208.122 370.89 208.227 370.626 208.319C370.368 208.407 370.095 208.481 369.81 208.543C369.53 208.6 369.233 208.644 368.922 208.674C368.615 208.705 368.29 208.72 367.948 208.72C367.075 208.72 366.309 208.615 365.651 208.405C364.993 208.194 364.442 207.907 363.999 207.542C363.556 207.178 363.223 206.75 362.999 206.259C362.775 205.768 362.663 205.239 362.663 204.673ZM370.133 203.916C370.063 203.701 369.953 203.502 369.804 203.317C369.659 203.129 369.477 202.966 369.257 202.83C369.038 202.69 368.784 202.58 368.494 202.501C368.205 202.422 367.886 202.383 367.54 202.383C367.171 202.383 366.836 202.425 366.533 202.508C366.23 202.591 365.965 202.703 365.737 202.844C365.508 202.984 365.318 203.146 365.164 203.331C365.015 203.515 364.905 203.71 364.835 203.916H370.133ZM373.93 206.134C373.93 205.761 374.011 205.421 374.174 205.114C374.336 204.807 374.579 204.544 374.904 204.324C375.229 204.101 375.632 203.929 376.115 203.811C376.602 203.688 377.168 203.627 377.813 203.627C378.291 203.627 378.793 203.662 379.32 203.732C379.851 203.802 380.397 203.91 380.959 204.054C380.937 203.809 380.862 203.583 380.735 203.377C380.608 203.166 380.43 202.986 380.202 202.837C379.978 202.683 379.706 202.565 379.386 202.482C379.07 202.398 378.71 202.357 378.306 202.357C378.087 202.357 377.846 202.37 377.583 202.396C377.319 202.422 377.047 202.462 376.766 202.514C376.486 202.567 376.207 202.633 375.931 202.712C375.659 202.791 375.404 202.885 375.167 202.995L374.575 201.396C374.869 201.29 375.183 201.194 375.516 201.106C375.854 201.018 376.198 200.944 376.549 200.882C376.9 200.817 377.251 200.766 377.602 200.731C377.953 200.696 378.293 200.678 378.622 200.678C380.075 200.678 381.154 201.049 381.86 201.791C382.567 202.532 382.92 203.668 382.92 205.2V208.582H380.972V207.852C380.77 207.97 380.548 208.082 380.307 208.187C380.07 208.293 379.811 208.385 379.531 208.464C379.25 208.543 378.947 208.604 378.622 208.648C378.302 208.696 377.962 208.72 377.602 208.72C376.997 208.72 376.464 208.655 376.003 208.523C375.547 208.391 375.165 208.209 374.858 207.977C374.551 207.744 374.318 207.472 374.16 207.161C374.007 206.845 373.93 206.503 373.93 206.134ZM375.983 206.068C375.983 206.195 376.016 206.318 376.082 206.437C376.148 206.551 376.253 206.654 376.398 206.746C376.543 206.834 376.727 206.906 376.951 206.963C377.179 207.016 377.453 207.042 377.773 207.042C378.116 207.042 378.447 207.012 378.767 206.95C379.087 206.889 379.386 206.808 379.662 206.707C379.939 206.606 380.189 206.489 380.412 206.358C380.636 206.226 380.823 206.09 380.972 205.95V205.608C380.673 205.524 380.377 205.454 380.083 205.397C379.794 205.34 379.515 205.296 379.248 205.265C378.984 205.23 378.734 205.206 378.497 205.193C378.265 205.18 378.061 205.173 377.885 205.173C377.521 205.173 377.218 205.197 376.977 205.246C376.736 205.294 376.541 205.36 376.391 205.443C376.242 205.522 376.137 205.616 376.075 205.726C376.014 205.836 375.983 205.95 375.983 206.068ZM385.809 206.2C386.335 206.516 386.914 206.748 387.546 206.897C388.178 207.047 388.825 207.121 389.488 207.121C389.935 207.121 390.308 207.091 390.606 207.029C390.905 206.968 391.144 206.889 391.324 206.792C391.504 206.696 391.631 206.586 391.705 206.463C391.78 206.34 391.817 206.215 391.817 206.088C391.817 205.904 391.736 205.746 391.574 205.614C391.416 205.483 391.153 205.417 390.784 205.417C390.613 205.417 390.429 205.428 390.231 205.45C390.034 205.472 389.825 205.496 389.606 205.522C389.391 205.544 389.165 205.566 388.928 205.588C388.696 205.61 388.459 205.621 388.218 205.621C387.691 205.621 387.241 205.564 386.868 205.45C386.5 205.336 386.199 205.18 385.967 204.982C385.734 204.785 385.565 204.552 385.46 204.285C385.355 204.013 385.302 203.721 385.302 203.41C385.302 203.015 385.394 202.65 385.579 202.317C385.763 201.984 386.026 201.696 386.368 201.455C386.71 201.209 387.123 201.018 387.605 200.882C388.092 200.746 388.634 200.678 389.231 200.678C389.543 200.678 389.867 200.698 390.205 200.738C390.547 200.773 390.883 200.821 391.212 200.882C391.541 200.944 391.857 201.016 392.16 201.1C392.462 201.179 392.73 201.264 392.962 201.356L392.35 202.87C391.855 202.686 391.359 202.541 390.863 202.436C390.372 202.326 389.865 202.271 389.343 202.271C388.979 202.271 388.669 202.299 388.415 202.357C388.165 202.409 387.961 202.482 387.803 202.574C387.645 202.661 387.529 202.765 387.454 202.883C387.384 202.997 387.349 203.118 387.349 203.245C387.349 203.337 387.366 203.42 387.401 203.495C387.441 203.57 387.502 203.635 387.586 203.692C387.673 203.745 387.785 203.787 387.921 203.818C388.062 203.844 388.233 203.857 388.435 203.857C388.619 203.857 388.814 203.846 389.02 203.824C389.227 203.802 389.442 203.78 389.665 203.758C389.889 203.732 390.119 203.708 390.356 203.686C390.598 203.664 390.843 203.653 391.093 203.653C391.559 203.653 391.964 203.708 392.311 203.818C392.662 203.927 392.951 204.081 393.18 204.278C393.408 204.476 393.579 204.708 393.693 204.976C393.807 205.243 393.864 205.535 393.864 205.851C393.864 206.259 393.77 206.639 393.581 206.99C393.392 207.341 393.112 207.646 392.739 207.904C392.366 208.159 391.901 208.358 391.344 208.503C390.791 208.648 390.15 208.72 389.422 208.72C388.974 208.72 388.542 208.692 388.125 208.635C387.709 208.582 387.312 208.51 386.934 208.418C386.557 208.321 386.202 208.209 385.868 208.082C385.539 207.955 385.238 207.819 384.966 207.674L385.809 206.2ZM403.44 200.126H399.642V198.296H409.323V200.126H405.526V208.582H403.44V200.126ZM410.942 206.134C410.942 205.761 411.023 205.421 411.185 205.114C411.348 204.807 411.591 204.544 411.916 204.324C412.241 204.101 412.644 203.929 413.127 203.811C413.614 203.688 414.18 203.627 414.825 203.627C415.303 203.627 415.805 203.662 416.332 203.732C416.863 203.802 417.409 203.91 417.97 204.054C417.949 203.809 417.874 203.583 417.747 203.377C417.619 203.166 417.442 202.986 417.214 202.837C416.99 202.683 416.718 202.565 416.398 202.482C416.082 202.398 415.722 202.357 415.318 202.357C415.099 202.357 414.858 202.37 414.594 202.396C414.331 202.422 414.059 202.462 413.778 202.514C413.498 202.567 413.219 202.633 412.943 202.712C412.671 202.791 412.416 202.885 412.179 202.995L411.587 201.396C411.881 201.29 412.194 201.194 412.528 201.106C412.866 201.018 413.21 200.944 413.561 200.882C413.912 200.817 414.263 200.766 414.614 200.731C414.965 200.696 415.305 200.678 415.634 200.678C417.086 200.678 418.166 201.049 418.872 201.791C419.578 202.532 419.932 203.668 419.932 205.2V208.582H417.984V207.852C417.782 207.97 417.56 208.082 417.319 208.187C417.082 208.293 416.823 208.385 416.542 208.464C416.262 208.543 415.959 208.604 415.634 208.648C415.314 208.696 414.974 208.72 414.614 208.72C414.009 208.72 413.476 208.655 413.015 208.523C412.559 208.391 412.177 208.209 411.87 207.977C411.563 207.744 411.33 207.472 411.172 207.161C411.019 206.845 410.942 206.503 410.942 206.134ZM412.995 206.068C412.995 206.195 413.028 206.318 413.094 206.437C413.16 206.551 413.265 206.654 413.41 206.746C413.555 206.834 413.739 206.906 413.963 206.963C414.191 207.016 414.465 207.042 414.785 207.042C415.127 207.042 415.459 207.012 415.779 206.95C416.099 206.889 416.398 206.808 416.674 206.707C416.95 206.606 417.2 206.489 417.424 206.358C417.648 206.226 417.834 206.09 417.984 205.95V205.608C417.685 205.524 417.389 205.454 417.095 205.397C416.806 205.34 416.527 205.296 416.259 205.265C415.996 205.23 415.746 205.206 415.509 205.193C415.277 205.18 415.073 205.173 414.897 205.173C414.533 205.173 414.23 205.197 413.989 205.246C413.748 205.294 413.552 205.36 413.403 205.443C413.254 205.522 413.149 205.616 413.087 205.726C413.026 205.836 412.995 205.95 412.995 206.068ZM422.518 197.664H424.466V204.114L428.099 200.817H431.08L427.019 204.449L431.337 208.582H428.415L425.526 205.785L424.466 206.733V208.582H422.518V197.664ZM432.251 204.673C432.251 204.147 432.359 203.644 432.574 203.166C432.789 202.683 433.098 202.258 433.502 201.889C433.905 201.521 434.399 201.227 434.982 201.007C435.57 200.788 436.237 200.678 436.983 200.678C437.725 200.678 438.391 200.79 438.984 201.014C439.58 201.233 440.085 201.536 440.497 201.922C440.914 202.308 441.232 202.762 441.452 203.284C441.675 203.807 441.787 204.366 441.787 204.963C441.787 205.037 441.785 205.118 441.781 205.206C441.781 205.289 441.776 205.366 441.768 205.436H434.423C434.506 205.669 434.64 205.882 434.825 206.075C435.013 206.268 435.248 206.435 435.529 206.575C435.81 206.715 436.134 206.825 436.503 206.904C436.871 206.979 437.279 207.016 437.727 207.016C438.174 207.016 438.62 206.97 439.063 206.878C439.506 206.781 439.929 206.661 440.333 206.516L440.991 208.003C440.737 208.122 440.478 208.227 440.214 208.319C439.956 208.407 439.684 208.481 439.398 208.543C439.118 208.6 438.821 208.644 438.51 208.674C438.203 208.705 437.878 208.72 437.536 208.72C436.663 208.72 435.897 208.615 435.239 208.405C434.581 208.194 434.03 207.907 433.587 207.542C433.144 207.178 432.811 206.75 432.587 206.259C432.363 205.768 432.251 205.239 432.251 204.673ZM439.721 203.916C439.651 203.701 439.541 203.502 439.392 203.317C439.247 203.129 439.065 202.966 438.846 202.83C438.626 202.69 438.372 202.58 438.082 202.501C437.793 202.422 437.475 202.383 437.128 202.383C436.759 202.383 436.424 202.425 436.121 202.508C435.818 202.591 435.553 202.703 435.325 202.844C435.097 202.984 434.906 203.146 434.752 203.331C434.603 203.515 434.493 203.71 434.423 203.916H439.721ZM448.605 198.296H457.806V200.126H450.691V202.817H456.733V204.535H450.691V208.582H448.605V198.296ZM459.629 197.664H461.577V208.582H459.629V197.664ZM465.104 199.757C464.911 199.757 464.735 199.731 464.578 199.678C464.424 199.621 464.292 199.546 464.183 199.454C464.073 199.358 463.987 199.248 463.926 199.125C463.869 198.998 463.84 198.864 463.84 198.724C463.84 198.579 463.869 198.445 463.926 198.322C463.987 198.195 464.073 198.085 464.183 197.993C464.292 197.901 464.424 197.829 464.578 197.776C464.735 197.719 464.911 197.691 465.104 197.691C465.301 197.691 465.477 197.719 465.63 197.776C465.788 197.829 465.922 197.901 466.032 197.993C466.142 198.085 466.225 198.195 466.282 198.322C466.343 198.445 466.374 198.579 466.374 198.724C466.374 198.864 466.343 198.998 466.282 199.125C466.225 199.248 466.142 199.358 466.032 199.454C465.922 199.546 465.788 199.621 465.63 199.678C465.477 199.731 465.301 199.757 465.104 199.757ZM464.13 200.817H466.078V208.582H464.13V200.817ZM469.796 209.898C470.042 209.986 470.292 210.059 470.547 210.116C470.801 210.177 471.047 210.225 471.284 210.26C471.525 210.3 471.755 210.326 471.975 210.339C472.194 210.357 472.389 210.366 472.56 210.366C473.078 210.366 473.528 210.302 473.909 210.175C474.296 210.052 474.616 209.885 474.87 209.675C475.129 209.464 475.322 209.218 475.449 208.938C475.577 208.661 475.64 208.367 475.64 208.056V207.72C475.474 207.834 475.278 207.944 475.055 208.049C474.831 208.154 474.585 208.247 474.317 208.326C474.05 208.405 473.765 208.468 473.462 208.516C473.164 208.565 472.854 208.589 472.534 208.589C471.898 208.589 471.31 208.494 470.77 208.306C470.231 208.113 469.763 207.845 469.369 207.503C468.974 207.156 468.664 206.742 468.441 206.259C468.221 205.776 468.112 205.241 468.112 204.653C468.112 204.052 468.228 203.508 468.46 203.021C468.693 202.53 469.013 202.111 469.421 201.764C469.834 201.418 470.321 201.15 470.882 200.961C471.444 200.773 472.054 200.678 472.712 200.678C472.992 200.678 473.271 200.696 473.547 200.731C473.824 200.766 474.087 200.814 474.337 200.876C474.592 200.937 474.829 201.012 475.048 201.1C475.272 201.183 475.469 201.275 475.64 201.376V200.817H477.588V207.694C477.588 208.4 477.481 209.025 477.266 209.569C477.051 210.113 476.735 210.57 476.318 210.938C475.906 211.311 475.392 211.592 474.778 211.781C474.164 211.974 473.46 212.07 472.666 212.07C472.38 212.07 472.084 212.057 471.777 212.031C471.47 212.009 471.161 211.974 470.849 211.925C470.542 211.882 470.237 211.827 469.934 211.761C469.636 211.699 469.349 211.627 469.072 211.544L469.796 209.898ZM470.158 204.634C470.158 204.945 470.22 205.239 470.343 205.515C470.47 205.787 470.65 206.027 470.882 206.233C471.115 206.435 471.395 206.595 471.725 206.713C472.054 206.827 472.424 206.884 472.837 206.884C473.104 206.884 473.37 206.86 473.633 206.812C473.901 206.759 474.155 206.687 474.396 206.595C474.642 206.503 474.87 206.391 475.081 206.259C475.296 206.127 475.482 205.981 475.64 205.818V203.258C475.443 203.1 475.234 202.966 475.015 202.857C474.796 202.747 474.572 202.657 474.344 202.587C474.116 202.517 473.885 202.466 473.653 202.436C473.42 202.4 473.194 202.383 472.975 202.383C472.527 202.383 472.128 202.442 471.777 202.561C471.431 202.679 471.137 202.841 470.895 203.048C470.658 203.249 470.476 203.486 470.349 203.758C470.222 204.03 470.158 204.322 470.158 204.634ZM479.806 197.671H481.754V201.409C482.162 201.185 482.616 201.007 483.116 200.876C483.621 200.744 484.15 200.678 484.702 200.678C485.343 200.678 485.918 200.773 486.427 200.961C486.94 201.15 487.374 201.422 487.73 201.777C488.085 202.128 488.357 202.556 488.546 203.061C488.739 203.565 488.835 204.133 488.835 204.765V208.582H486.894V204.844C486.894 204.476 486.835 204.14 486.716 203.837C486.598 203.53 486.424 203.267 486.196 203.048C485.968 202.828 485.69 202.659 485.36 202.541C485.036 202.418 484.667 202.357 484.255 202.357C483.759 202.357 483.298 202.436 482.873 202.593C482.447 202.751 482.074 202.951 481.754 203.192V208.582H479.806V197.671ZM492.192 202.278H490.316V200.817H492.192V198.401H494.14V200.817H496.015V202.278H494.14V208.582H492.192V202.278ZM497.786 207.437C497.786 207.262 497.823 207.097 497.897 206.944C497.972 206.79 498.075 206.656 498.207 206.542C498.343 206.424 498.505 206.331 498.694 206.266C498.887 206.2 499.102 206.167 499.339 206.167C499.593 206.167 499.826 206.209 500.036 206.292C500.251 206.371 500.435 206.487 500.589 206.641C500.743 206.794 500.861 206.983 500.944 207.207C501.032 207.426 501.076 207.674 501.076 207.95C501.076 208.573 500.861 209.17 500.431 209.74C500.006 210.315 499.385 210.824 498.569 211.267L497.779 210.149C497.994 210.034 498.183 209.92 498.345 209.806C498.507 209.697 498.65 209.585 498.773 209.471C498.896 209.357 499.001 209.238 499.089 209.115C499.181 208.992 499.262 208.861 499.332 208.72C499.1 208.72 498.887 208.685 498.694 208.615C498.505 208.549 498.343 208.459 498.207 208.345C498.071 208.231 497.965 208.097 497.891 207.944C497.821 207.786 497.786 207.617 497.786 207.437ZM512.198 198.296H514.284V203.962C514.284 204.427 514.348 204.842 514.475 205.206C514.602 205.566 514.791 205.871 515.041 206.121C515.296 206.371 515.609 206.562 515.982 206.693C516.355 206.821 516.789 206.884 517.285 206.884C517.777 206.884 518.209 206.821 518.582 206.693C518.959 206.562 519.273 206.371 519.523 206.121C519.777 205.871 519.968 205.566 520.095 205.206C520.223 204.842 520.286 204.427 520.286 203.962V198.296H522.372V204.212C522.372 204.888 522.258 205.502 522.03 206.055C521.802 206.608 521.471 207.082 521.036 207.477C520.602 207.871 520.069 208.176 519.437 208.391C518.81 208.606 518.092 208.714 517.285 208.714C516.478 208.714 515.758 208.606 515.127 208.391C514.499 208.176 513.968 207.871 513.534 207.477C513.1 207.082 512.768 206.608 512.54 206.055C512.312 205.502 512.198 204.888 512.198 204.212V198.296ZM524.676 200.817H526.624V201.475C527.141 201.181 527.635 200.975 528.104 200.856C528.578 200.738 529.041 200.678 529.493 200.678C530.085 200.678 530.634 200.766 531.138 200.942C531.643 201.113 532.079 201.369 532.448 201.712C532.816 202.054 533.104 202.482 533.31 202.995C533.521 203.504 533.626 204.094 533.626 204.765V208.582H531.685V205.081C531.685 204.656 531.623 204.276 531.5 203.943C531.382 203.605 531.209 203.322 530.98 203.094C530.757 202.861 530.482 202.686 530.158 202.567C529.837 202.444 529.478 202.383 529.078 202.383C528.868 202.383 528.651 202.405 528.427 202.449C528.208 202.493 527.99 202.556 527.775 202.64C527.565 202.718 527.361 202.819 527.163 202.942C526.966 203.061 526.786 203.197 526.624 203.35V208.582H524.676V200.817ZM536.074 197.664H538.022V208.582H536.074V197.664ZM540.154 204.673C540.154 204.147 540.262 203.644 540.477 203.166C540.692 202.683 541.001 202.258 541.405 201.889C541.808 201.521 542.302 201.227 542.885 201.007C543.473 200.788 544.14 200.678 544.886 200.678C545.628 200.678 546.294 200.79 546.887 201.014C547.483 201.233 547.988 201.536 548.4 201.922C548.817 202.308 549.135 202.762 549.355 203.284C549.578 203.807 549.69 204.366 549.69 204.963C549.69 205.037 549.688 205.118 549.684 205.206C549.684 205.289 549.679 205.366 549.671 205.436H542.326C542.409 205.669 542.543 205.882 542.728 206.075C542.916 206.268 543.151 206.435 543.432 206.575C543.713 206.715 544.037 206.825 544.406 206.904C544.774 206.979 545.182 207.016 545.63 207.016C546.077 207.016 546.523 206.97 546.966 206.878C547.409 206.781 547.832 206.661 548.236 206.516L548.894 208.003C548.64 208.122 548.381 208.227 548.117 208.319C547.859 208.407 547.587 208.481 547.301 208.543C547.021 208.6 546.724 208.644 546.413 208.674C546.106 208.705 545.781 208.72 545.439 208.72C544.566 208.72 543.8 208.615 543.142 208.405C542.484 208.194 541.933 207.907 541.49 207.542C541.047 207.178 540.714 206.75 540.49 206.259C540.266 205.768 540.154 205.239 540.154 204.673ZM547.624 203.916C547.554 203.701 547.444 203.502 547.295 203.317C547.15 203.129 546.968 202.966 546.749 202.83C546.529 202.69 546.275 202.58 545.985 202.501C545.696 202.422 545.378 202.383 545.031 202.383C544.662 202.383 544.327 202.425 544.024 202.508C543.721 202.591 543.456 202.703 543.228 202.844C543 202.984 542.809 203.146 542.655 203.331C542.506 203.515 542.396 203.71 542.326 203.916H547.624ZM551.421 206.134C551.421 205.761 551.502 205.421 551.665 205.114C551.827 204.807 552.07 204.544 552.395 204.324C552.72 204.101 553.123 203.929 553.606 203.811C554.093 203.688 554.659 203.627 555.304 203.627C555.782 203.627 556.285 203.662 556.811 203.732C557.342 203.802 557.888 203.91 558.45 204.054C558.428 203.809 558.353 203.583 558.226 203.377C558.099 203.166 557.921 202.986 557.693 202.837C557.469 202.683 557.197 202.565 556.877 202.482C556.561 202.398 556.201 202.357 555.798 202.357C555.578 202.357 555.337 202.37 555.074 202.396C554.81 202.422 554.538 202.462 554.258 202.514C553.977 202.567 553.698 202.633 553.422 202.712C553.15 202.791 552.895 202.885 552.658 202.995L552.066 201.396C552.36 201.29 552.674 201.194 553.007 201.106C553.345 201.018 553.689 200.944 554.04 200.882C554.391 200.817 554.742 200.766 555.093 200.731C555.444 200.696 555.784 200.678 556.113 200.678C557.566 200.678 558.645 201.049 559.351 201.791C560.058 202.532 560.411 203.668 560.411 205.2V208.582H558.463V207.852C558.261 207.97 558.039 208.082 557.798 208.187C557.561 208.293 557.302 208.385 557.022 208.464C556.741 208.543 556.438 208.604 556.113 208.648C555.793 208.696 555.453 208.72 555.093 208.72C554.488 208.72 553.955 208.655 553.494 208.523C553.038 208.391 552.656 208.209 552.349 207.977C552.042 207.744 551.809 207.472 551.651 207.161C551.498 206.845 551.421 206.503 551.421 206.134ZM553.474 206.068C553.474 206.195 553.507 206.318 553.573 206.437C553.639 206.551 553.744 206.654 553.889 206.746C554.034 206.834 554.218 206.906 554.442 206.963C554.67 207.016 554.944 207.042 555.264 207.042C555.607 207.042 555.938 207.012 556.258 206.95C556.578 206.889 556.877 206.808 557.153 206.707C557.43 206.606 557.68 206.489 557.903 206.358C558.127 206.226 558.314 206.09 558.463 205.95V205.608C558.165 205.524 557.868 205.454 557.574 205.397C557.285 205.34 557.006 205.296 556.739 205.265C556.475 205.23 556.225 205.206 555.988 205.193C555.756 205.18 555.552 205.173 555.376 205.173C555.012 205.173 554.709 205.197 554.468 205.246C554.227 205.294 554.032 205.36 553.882 205.443C553.733 205.522 553.628 205.616 553.567 205.726C553.505 205.836 553.474 205.95 553.474 206.068ZM563.3 206.2C563.826 206.516 564.406 206.748 565.037 206.897C565.669 207.047 566.316 207.121 566.979 207.121C567.426 207.121 567.799 207.091 568.098 207.029C568.396 206.968 568.635 206.889 568.815 206.792C568.995 206.696 569.122 206.586 569.197 206.463C569.271 206.34 569.308 206.215 569.308 206.088C569.308 205.904 569.227 205.746 569.065 205.614C568.907 205.483 568.644 205.417 568.275 205.417C568.104 205.417 567.92 205.428 567.722 205.45C567.525 205.472 567.317 205.496 567.097 205.522C566.882 205.544 566.656 205.566 566.419 205.588C566.187 205.61 565.95 205.621 565.709 205.621C565.182 205.621 564.732 205.564 564.359 205.45C563.991 205.336 563.69 205.18 563.458 204.982C563.225 204.785 563.056 204.552 562.951 204.285C562.846 204.013 562.793 203.721 562.793 203.41C562.793 203.015 562.885 202.65 563.07 202.317C563.254 201.984 563.517 201.696 563.859 201.455C564.202 201.209 564.614 201.018 565.097 200.882C565.584 200.746 566.125 200.678 566.722 200.678C567.034 200.678 567.358 200.698 567.696 200.738C568.038 200.773 568.374 200.821 568.703 200.882C569.032 200.944 569.348 201.016 569.651 201.1C569.953 201.179 570.221 201.264 570.454 201.356L569.842 202.87C569.346 202.686 568.85 202.541 568.354 202.436C567.863 202.326 567.356 202.271 566.834 202.271C566.47 202.271 566.161 202.299 565.906 202.357C565.656 202.409 565.452 202.482 565.294 202.574C565.136 202.661 565.02 202.765 564.945 202.883C564.875 202.997 564.84 203.118 564.84 203.245C564.84 203.337 564.857 203.42 564.893 203.495C564.932 203.57 564.993 203.635 565.077 203.692C565.165 203.745 565.276 203.787 565.412 203.818C565.553 203.844 565.724 203.857 565.926 203.857C566.11 203.857 566.305 203.846 566.511 203.824C566.718 203.802 566.933 203.78 567.156 203.758C567.38 203.732 567.611 203.708 567.847 203.686C568.089 203.664 568.334 203.653 568.585 203.653C569.05 203.653 569.455 203.708 569.802 203.818C570.153 203.927 570.443 204.081 570.671 204.278C570.899 204.476 571.07 204.708 571.184 204.976C571.298 205.243 571.355 205.535 571.355 205.851C571.355 206.259 571.261 206.639 571.072 206.99C570.884 207.341 570.603 207.646 570.23 207.904C569.857 208.159 569.392 208.358 568.835 208.503C568.282 208.648 567.641 208.72 566.913 208.72C566.465 208.72 566.033 208.692 565.616 208.635C565.2 208.582 564.803 208.51 564.425 208.418C564.048 208.321 563.693 208.209 563.359 208.082C563.03 207.955 562.73 207.819 562.458 207.674L563.3 206.2ZM573.112 197.671H575.06V201.409C575.468 201.185 575.922 201.007 576.423 200.876C576.927 200.744 577.456 200.678 578.009 200.678C578.649 200.678 579.224 200.773 579.733 200.961C580.246 201.15 580.681 201.422 581.036 201.777C581.391 202.128 581.663 202.556 581.852 203.061C582.045 203.565 582.142 204.133 582.142 204.765V208.582H580.2V204.844C580.2 204.476 580.141 204.14 580.022 203.837C579.904 203.53 579.731 203.267 579.503 203.048C579.274 202.828 578.996 202.659 578.667 202.541C578.342 202.418 577.974 202.357 577.561 202.357C577.065 202.357 576.605 202.436 576.179 202.593C575.753 202.751 575.381 202.951 575.06 203.192V208.582H573.112V197.671ZM592.197 206.035L587.702 198.296H590.065L593.231 204.147L596.357 198.296H598.719L594.284 206.022V208.582H592.197V206.035ZM599.588 204.699C599.588 204.142 599.7 203.62 599.924 203.133C600.152 202.646 600.474 202.221 600.891 201.856C601.312 201.492 601.819 201.205 602.411 200.994C603.008 200.784 603.677 200.678 604.418 200.678C605.16 200.678 605.827 200.784 606.419 200.994C607.016 201.205 607.522 201.492 607.939 201.856C608.36 202.221 608.683 202.646 608.907 203.133C609.135 203.62 609.249 204.142 609.249 204.699C609.249 205.257 609.135 205.779 608.907 206.266C608.683 206.753 608.36 207.178 607.939 207.542C607.522 207.907 607.016 208.194 606.419 208.405C605.827 208.615 605.16 208.72 604.418 208.72C603.677 208.72 603.008 208.615 602.411 208.405C601.819 208.194 601.312 207.907 600.891 207.542C600.474 207.178 600.152 206.753 599.924 206.266C599.7 205.779 599.588 205.257 599.588 204.699ZM601.635 204.699C601.635 205.011 601.696 205.307 601.819 205.588C601.946 205.864 602.128 206.11 602.365 206.325C602.606 206.536 602.898 206.704 603.24 206.832C603.587 206.954 603.98 207.016 604.418 207.016C604.857 207.016 605.248 206.954 605.59 206.832C605.936 206.704 606.228 206.536 606.465 206.325C606.706 206.11 606.888 205.864 607.011 205.588C607.139 205.307 607.202 205.011 607.202 204.699C607.202 204.388 607.139 204.092 607.011 203.811C606.888 203.53 606.706 203.284 606.465 203.074C606.228 202.859 605.936 202.69 605.59 202.567C605.248 202.44 604.857 202.376 604.418 202.376C603.98 202.376 603.587 202.44 603.24 202.567C602.898 202.69 602.606 202.859 602.365 203.074C602.128 203.284 601.946 203.53 601.819 203.811C601.696 204.092 601.635 204.388 601.635 204.699ZM611.217 200.81H613.158V204.601C613.158 204.96 613.198 205.289 613.276 205.588C613.355 205.882 613.489 206.134 613.678 206.345C613.871 206.555 614.125 206.72 614.441 206.838C614.762 206.952 615.159 207.009 615.632 207.009C615.856 207.009 616.082 206.985 616.31 206.937C616.543 206.889 616.764 206.823 616.975 206.74C617.186 206.652 617.381 206.549 617.561 206.43C617.745 206.312 617.903 206.182 618.035 206.042V200.81H619.983V208.582H618.035V207.918C617.556 208.203 617.076 208.407 616.593 208.53C616.111 208.652 615.652 208.714 615.218 208.714C614.507 208.714 613.897 208.628 613.388 208.457C612.884 208.286 612.469 208.038 612.145 207.714C611.824 207.384 611.59 206.983 611.44 206.509C611.291 206.031 611.217 205.487 611.217 204.877V200.81ZM622.457 200.817H624.405V201.935C624.835 201.615 625.289 201.339 625.767 201.106C626.246 200.874 626.722 200.696 627.195 200.573L627.768 202.357C627.018 202.431 626.357 202.6 625.787 202.863C625.221 203.122 624.76 203.488 624.405 203.962V208.582H622.457V200.817ZM633.316 203.377C633.316 202.644 633.454 201.962 633.73 201.33C634.007 200.694 634.406 200.143 634.928 199.678C635.455 199.209 636.095 198.84 636.85 198.572C637.609 198.305 638.467 198.171 639.423 198.171C640.261 198.171 641.029 198.257 641.726 198.428C642.428 198.594 643.08 198.851 643.681 199.198L642.72 200.777C642.54 200.659 642.332 200.553 642.095 200.461C641.862 200.369 641.612 200.292 641.345 200.231C641.081 200.165 640.807 200.115 640.522 200.079C640.241 200.044 639.963 200.027 639.686 200.027C639.019 200.027 638.425 200.11 637.903 200.277C637.381 200.439 636.94 200.67 636.58 200.968C636.225 201.262 635.953 201.615 635.764 202.027C635.58 202.436 635.488 202.885 635.488 203.377C635.488 203.886 635.584 204.353 635.777 204.778C635.97 205.204 636.249 205.572 636.613 205.884C636.981 206.191 637.429 206.432 637.955 206.608C638.486 206.779 639.085 206.865 639.752 206.865C640.055 206.865 640.355 206.843 640.654 206.799C640.952 206.755 641.239 206.696 641.516 206.621C641.797 206.542 642.066 206.45 642.325 206.345C642.584 206.235 642.825 206.117 643.049 205.989L644.01 207.569C643.448 207.928 642.799 208.211 642.062 208.418C641.325 208.62 640.542 208.72 639.713 208.72C638.655 208.72 637.727 208.584 636.929 208.312C636.13 208.036 635.463 207.659 634.928 207.18C634.393 206.698 633.989 206.132 633.717 205.483C633.45 204.829 633.316 204.127 633.316 203.377ZM646.07 200.817H648.018V201.935C648.448 201.615 648.902 201.339 649.38 201.106C649.858 200.874 650.334 200.696 650.808 200.573L651.381 202.357C650.631 202.431 649.97 202.6 649.4 202.863C648.834 203.122 648.373 203.488 648.018 203.962V208.582H646.07V200.817ZM652.467 204.673C652.467 204.147 652.574 203.644 652.789 203.166C653.004 202.683 653.313 202.258 653.717 201.889C654.121 201.521 654.614 201.227 655.198 201.007C655.786 200.788 656.453 200.678 657.198 200.678C657.94 200.678 658.607 200.79 659.199 201.014C659.796 201.233 660.3 201.536 660.713 201.922C661.13 202.308 661.448 202.762 661.667 203.284C661.891 203.807 662.003 204.366 662.003 204.963C662.003 205.037 662 205.118 661.996 205.206C661.996 205.289 661.992 205.366 661.983 205.436H654.638C654.722 205.669 654.856 205.882 655.04 206.075C655.229 206.268 655.463 206.435 655.744 206.575C656.025 206.715 656.349 206.825 656.718 206.904C657.087 206.979 657.495 207.016 657.942 207.016C658.39 207.016 658.835 206.97 659.278 206.878C659.721 206.781 660.145 206.661 660.548 206.516L661.206 208.003C660.952 208.122 660.693 208.227 660.43 208.319C660.171 208.407 659.899 208.481 659.614 208.543C659.333 208.6 659.037 208.644 658.725 208.674C658.418 208.705 658.093 208.72 657.751 208.72C656.878 208.72 656.113 208.615 655.454 208.405C654.796 208.194 654.246 207.907 653.803 207.542C653.359 207.178 653.026 206.75 652.802 206.259C652.579 205.768 652.467 205.239 652.467 204.673ZM659.936 203.916C659.866 203.701 659.756 203.502 659.607 203.317C659.462 203.129 659.28 202.966 659.061 202.83C658.842 202.69 658.587 202.58 658.297 202.501C658.008 202.422 657.69 202.383 657.343 202.383C656.975 202.383 656.639 202.425 656.336 202.508C656.034 202.591 655.768 202.703 655.54 202.844C655.312 202.984 655.121 203.146 654.967 203.331C654.818 203.515 654.709 203.71 654.638 203.916H659.936ZM663.733 206.134C663.733 205.761 663.815 205.421 663.977 205.114C664.139 204.807 664.383 204.544 664.707 204.324C665.032 204.101 665.436 203.929 665.918 203.811C666.405 203.688 666.971 203.627 667.616 203.627C668.094 203.627 668.597 203.662 669.123 203.732C669.654 203.802 670.2 203.91 670.762 204.054C670.74 203.809 670.665 203.583 670.538 203.377C670.411 203.166 670.233 202.986 670.005 202.837C669.781 202.683 669.509 202.565 669.189 202.482C668.873 202.398 668.513 202.357 668.11 202.357C667.89 202.357 667.649 202.37 667.386 202.396C667.123 202.422 666.851 202.462 666.57 202.514C666.289 202.567 666.01 202.633 665.734 202.712C665.462 202.791 665.208 202.885 664.971 202.995L664.378 201.396C664.672 201.29 664.986 201.194 665.319 201.106C665.657 201.018 666.002 200.944 666.353 200.882C666.704 200.817 667.055 200.766 667.406 200.731C667.757 200.696 668.097 200.678 668.426 200.678C669.878 200.678 670.957 201.049 671.664 201.791C672.37 202.532 672.723 203.668 672.723 205.2V208.582H670.775V207.852C670.573 207.97 670.352 208.082 670.11 208.187C669.874 208.293 669.615 208.385 669.334 208.464C669.053 208.543 668.75 208.604 668.426 208.648C668.105 208.696 667.765 208.72 667.406 208.72C666.8 208.72 666.267 208.655 665.806 208.523C665.35 208.391 664.968 208.209 664.661 207.977C664.354 207.744 664.122 207.472 663.964 207.161C663.81 206.845 663.733 206.503 663.733 206.134ZM665.787 206.068C665.787 206.195 665.82 206.318 665.885 206.437C665.951 206.551 666.057 206.654 666.201 206.746C666.346 206.834 666.53 206.906 666.754 206.963C666.982 207.016 667.256 207.042 667.577 207.042C667.919 207.042 668.25 207.012 668.57 206.95C668.891 206.889 669.189 206.808 669.466 206.707C669.742 206.606 669.992 206.489 670.216 206.358C670.44 206.226 670.626 206.09 670.775 205.95V205.608C670.477 205.524 670.181 205.454 669.887 205.397C669.597 205.34 669.319 205.296 669.051 205.265C668.788 205.23 668.538 205.206 668.301 205.193C668.068 205.18 667.864 205.173 667.689 205.173C667.324 205.173 667.022 205.197 666.78 205.246C666.539 205.294 666.344 205.36 666.195 205.443C666.046 205.522 665.94 205.616 665.879 205.726C665.817 205.836 665.787 205.95 665.787 206.068ZM676.474 202.278H674.599V200.817H676.474V198.401H678.422V200.817H680.298V202.278H678.422V208.582H676.474V202.278ZM683.055 199.757C682.862 199.757 682.687 199.731 682.529 199.678C682.375 199.621 682.244 199.546 682.134 199.454C682.024 199.358 681.939 199.248 681.877 199.125C681.82 198.998 681.792 198.864 681.792 198.724C681.792 198.579 681.82 198.445 681.877 198.322C681.939 198.195 682.024 198.085 682.134 197.993C682.244 197.901 682.375 197.829 682.529 197.776C682.687 197.719 682.862 197.691 683.055 197.691C683.253 197.691 683.428 197.719 683.582 197.776C683.74 197.829 683.874 197.901 683.983 197.993C684.093 198.085 684.176 198.195 684.233 198.322C684.295 198.445 684.326 198.579 684.326 198.724C684.326 198.864 684.295 198.998 684.233 199.125C684.176 199.248 684.093 199.358 683.983 199.454C683.874 199.546 683.74 199.621 683.582 199.678C683.428 199.731 683.253 199.757 683.055 199.757ZM682.081 200.817H684.029V208.582H682.081V200.817ZM685.457 200.81H687.715L689.735 205.483L690.262 206.792L690.788 205.483L692.809 200.81H695.066L691.387 208.582H689.136L685.457 200.81ZM697.455 199.757C697.262 199.757 697.086 199.731 696.928 199.678C696.775 199.621 696.643 199.546 696.533 199.454C696.424 199.358 696.338 199.248 696.277 199.125C696.22 198.998 696.191 198.864 696.191 198.724C696.191 198.579 696.22 198.445 696.277 198.322C696.338 198.195 696.424 198.085 696.533 197.993C696.643 197.901 696.775 197.829 696.928 197.776C697.086 197.719 697.262 197.691 697.455 197.691C697.652 197.691 697.828 197.719 697.981 197.776C698.139 197.829 698.273 197.901 698.383 197.993C698.492 198.085 698.576 198.195 698.633 198.322C698.694 198.445 698.725 198.579 698.725 198.724C698.725 198.864 698.694 198.998 698.633 199.125C698.576 199.248 698.492 199.358 698.383 199.454C698.273 199.546 698.139 199.621 697.981 199.678C697.828 199.731 697.652 199.757 697.455 199.757ZM696.481 200.817H698.429V208.582H696.481V200.817ZM702.101 202.278H700.225V200.817H702.101V198.401H704.049V200.817H705.925V202.278H704.049V208.582H702.101V202.278ZM708.583 209.556C708.785 209.688 709.005 209.804 709.241 209.905C709.478 210.006 709.724 210.089 709.979 210.155C710.237 210.221 710.501 210.269 710.768 210.3C711.036 210.335 711.301 210.353 711.565 210.353C712.46 210.353 713.148 210.159 713.631 209.773C714.118 209.392 714.361 208.817 714.361 208.049V207.786C714.19 207.904 713.997 208.014 713.782 208.115C713.572 208.211 713.344 208.295 713.098 208.365C712.857 208.435 712.6 208.49 712.328 208.53C712.06 208.565 711.788 208.582 711.512 208.582C710.92 208.582 710.389 208.497 709.919 208.326C709.454 208.15 709.059 207.896 708.735 207.562C708.414 207.224 708.169 206.81 707.998 206.318C707.826 205.827 707.741 205.265 707.741 204.634V200.817H709.682V204.094C709.682 205.033 709.86 205.726 710.215 206.174C710.575 206.617 711.141 206.838 711.913 206.838C712.457 206.838 712.938 206.744 713.355 206.555C713.776 206.362 714.111 206.117 714.361 205.818V200.817H716.309V207.694C716.309 208.435 716.204 209.078 715.994 209.622C715.783 210.17 715.476 210.625 715.072 210.984C714.673 211.344 714.182 211.612 713.598 211.787C713.015 211.967 712.352 212.057 711.611 212.057C710.887 212.057 710.211 211.98 709.584 211.827C708.956 211.673 708.382 211.465 707.859 211.201L708.583 209.556Z" fill="white"/>
<g filter="url(#filter1_f_355_97)">
<path d="M131 38L131.899 49.1006L143 50L131.899 50.8994L131 62L130.101 50.8994L119 50L130.101 49.1006L131 38Z" fill="#D9D9D9"/>
</g>
<g filter="url(#filter2_f_355_97)">
<path d="M928 170L928.899 181.101L940 182L928.899 182.899L928 194L927.101 182.899L916 182L927.101 181.101L928 170Z" fill="#D9D9D9"/>
</g>
<path d="M48.134 200.5C48.5189 199.833 49.4811 199.833 49.866 200.5L88.8372 268C89.2221 268.667 88.7409 269.5 87.9711 269.5H10.0289C9.25906 269.5 8.77793 268.667 9.16283 268L48.134 200.5Z" stroke="#727171" stroke-width="2"/>
<path d="M835.134 3.5C835.519 2.83333 836.481 2.83333 836.866 3.5L874.105 68C874.49 68.6667 874.009 69.5 873.239 69.5H798.761C797.991 69.5 797.51 68.6667 797.895 68L835.134 3.5Z" stroke="#727171" stroke-width="2"/>
<defs>
<filter id="filter0_d_355_97" x="240.586" y="94.1941" width="522.5" height="78.8936" filterUnits="userSpaceOnUse" color-interpolation-filters="sRGB">
<feFlood flood-opacity="0" result="BackgroundImageFix"/>
<feColorMatrix in="SourceAlpha" type="matrix" values="0 0 0 0 0 0 0 0 0 0 0 0 0 0 0 0 0 0 127 0" result="hardAlpha"/>
<feOffset dy="3.66372"/>
<feGaussianBlur stdDeviation="1.83186"/>
<feComposite in2="hardAlpha" operator="out"/>
<feColorMatrix type="matrix" values="0 0 0 0 0 0 0 0 0 0 0 0 0 0 0 0 0 0 0.25 0"/>
<feBlend mode="normal" in2="BackgroundImageFix" result="effect1_dropShadow_355_97"/>
<feBlend mode="normal" in="SourceGraphic" in2="effect1_dropShadow_355_97" result="shape"/>
</filter>
<filter id="filter1_f_355_97" x="118" y="37" width="26" height="26" filterUnits="userSpaceOnUse" color-interpolation-filters="sRGB">
<feFlood flood-opacity="0" result="BackgroundImageFix"/>
<feBlend mode="normal" in="SourceGraphic" in2="BackgroundImageFix" result="shape"/>
<feGaussianBlur stdDeviation="0.5" result="effect1_foregroundBlur_355_97"/>
</filter>
<filter id="filter2_f_355_97" x="915" y="169" width="26" height="26" filterUnits="userSpaceOnUse" color-interpolation-filters="sRGB">
<feFlood flood-opacity="0" result="BackgroundImageFix"/>
<feBlend mode="normal" in="SourceGraphic" in2="BackgroundImageFix" result="shape"/>
<feGaussianBlur stdDeviation="0.5" result="effect1_foregroundBlur_355_97"/>
</filter>
</defs>
</svg>
