<svg width="524" height="161" viewBox="0 0 524 161" fill="none" xmlns="http://www.w3.org/2000/svg">
<g filter="url(#filter0_d_130_46)">
<path d="M17.8689 68.2595H4.25V38.1732C4.25 37.8172 4.69506 37.3721 5.22914 37.3721H16.8898C17.5129 37.3721 17.8689 37.8172 17.8689 38.1732V66.3012V68.2595ZM57.4796 37.3721C58.1027 37.3721 58.4587 37.8172 58.4587 38.1732V107.781C58.4587 108.137 58.1027 108.582 57.4796 108.582H45.8189C45.2848 108.582 44.8398 108.137 44.8398 107.781V95.2303H17.8689V107.781C17.8689 108.137 17.5129 108.582 16.8898 108.582H5.22914C4.69506 108.582 4.25 108.137 4.25 107.781V81.8784H17.8689V81.9674H44.8398V79.5641V66.3012V38.1732C44.8398 37.8172 45.2848 37.3721 45.8189 37.3721H57.4796ZM117.087 107.514C117.354 108.048 116.909 108.582 116.286 108.582H104.002C103.735 108.582 103.29 108.404 103.201 108.048L89.1368 68.3485L75.2508 108.048C75.1618 108.404 74.7167 108.582 74.3607 108.582H62.1659C61.3648 108.582 61.0088 108.048 61.2758 107.514L88.2466 37.9062C88.5137 37.1941 89.7599 37.1941 90.0269 37.9062L117.087 107.514ZM160.628 95.4974H174.247V107.781C174.247 108.137 173.891 108.582 173.268 108.582H161.696C143.982 108.582 119.949 103.419 119.949 72.9772C119.949 41.3777 144.25 37.3721 161.696 37.3721H173.268C173.891 37.3721 174.247 37.8172 174.247 38.1732V66.1232H160.628V50.3679C145.14 49.5668 133.657 56.0647 133.657 72.9772C133.657 94.9633 151.994 95.8534 160.628 95.4974ZM233.763 107.247C234.297 107.959 233.852 108.582 232.962 108.582H217.652C217.474 108.582 216.939 108.404 216.85 108.315L196.11 82.6795C194.33 84.5488 176.973 104.221 176.973 104.221V38.1732C176.973 37.8172 177.418 37.3721 177.952 37.3721H189.702C190.236 37.3721 190.592 37.8172 190.592 38.1732V70.5738L217.385 37.6391C217.474 37.5501 218.008 37.3721 218.186 37.3721H232.695C233.674 37.3721 234.119 38.0842 233.496 38.7073L205.19 73.6002L233.763 107.247ZM251.552 63.1858H265.082V107.781C265.082 108.137 264.637 108.582 264.014 108.582H252.531C251.908 108.582 251.552 108.137 251.552 107.781V63.1858ZM237.844 49.5668C237.31 49.5668 236.865 49.2108 236.865 48.7657V38.1732C236.865 37.8172 237.31 37.3721 237.844 37.3721H278.701C279.324 37.3721 279.68 37.8172 279.68 38.1732V48.7657C279.68 49.2108 279.324 49.5668 278.701 49.5668H237.844ZM318.924 50.635H332.632L310.379 108.137C310.112 108.76 309.044 108.76 308.688 108.137L281.895 38.4402C281.628 37.9062 281.984 37.3721 282.696 37.3721H294.802C295.247 37.3721 295.603 37.5501 295.692 37.9062L309.578 76.7157L318.924 50.635ZM391.079 107.514C391.346 108.048 390.901 108.582 390.278 108.582H377.994C377.727 108.582 377.282 108.404 377.193 108.048L363.129 68.3485L349.243 108.048C349.154 108.404 348.709 108.582 348.353 108.582H336.158C335.357 108.582 335.001 108.048 335.268 107.514L362.239 37.9062C362.506 37.1941 363.752 37.1941 364.019 37.9062L391.079 107.514ZM442.542 107.425C442.809 108.048 442.453 108.582 441.741 108.582H429.012C428.745 108.582 428.211 108.315 428.122 108.048L415.126 79.8311H407.471V107.781C407.471 108.137 407.026 108.582 406.492 108.582H394.831C394.386 108.582 393.941 108.137 393.941 107.781V66.7463H407.471H417.886C420.823 66.7463 428.389 66.3902 428.389 58.5571C428.389 50.724 420.022 50.2789 417.886 50.2789H407.471H393.941V38.1732C393.941 37.8172 394.386 37.3721 394.831 37.3721H417.886C421.891 37.3721 441.919 37.5501 441.919 58.5571C441.919 69.4166 435.955 75.1135 428.834 77.6948C433.285 87.7533 438.091 97.5446 442.542 107.425ZM474.159 96.3875C474.782 96.3875 475.138 96.7435 475.138 97.1886V107.781C475.138 108.137 474.782 108.582 474.159 108.582H446.12C445.586 108.582 445.141 108.137 445.141 107.781V97.1886C445.141 96.7435 445.586 96.3875 446.12 96.3875H453.419V71.1969V49.5668V37.3721H467.038V49.5668V71.1969V96.3875H474.159ZM491.295 63.1858H504.825V107.781C504.825 108.137 504.38 108.582 503.757 108.582H492.274C491.651 108.582 491.295 108.137 491.295 107.781V63.1858ZM477.587 49.5668C477.053 49.5668 476.608 49.2108 476.608 48.7657V38.1732C476.608 37.8172 477.053 37.3721 477.587 37.3721H518.444C519.067 37.3721 519.423 37.8172 519.423 38.1732V48.7657C519.423 49.2108 519.067 49.5668 518.444 49.5668H477.587Z" fill="white"/>
</g>
<path d="M44.3816 141.296H46.6587L49.449 147.936L50.094 149.542L50.6007 147.936L51.6274 145.514L49.7781 141.296H51.9235L52.6803 143.303L53.3845 141.296H55.5299L53.6807 145.514L54.727 147.989L55.3588 149.542L55.8458 147.963L58.6494 141.296H60.9264L56.3855 151.582H54.319L53.4042 149.542L52.6606 147.561L51.9169 149.542L50.989 151.582H48.9225L44.3816 141.296ZM62.2755 140.671H64.2235V144.409C64.6315 144.185 65.0856 144.007 65.5858 143.876C66.0903 143.744 66.619 143.678 67.1718 143.678C67.8124 143.678 68.3871 143.773 68.8961 143.961C69.4094 144.15 69.8437 144.422 70.1991 144.777C70.5545 145.128 70.8265 145.556 71.0152 146.061C71.2082 146.565 71.3047 147.133 71.3047 147.765V151.582H69.3633V147.844C69.3633 147.476 69.3041 147.14 69.1856 146.837C69.0672 146.53 68.8939 146.267 68.6657 146.048C68.4376 145.828 68.159 145.659 67.8299 145.541C67.5053 145.418 67.1367 145.357 66.7243 145.357C66.2285 145.357 65.7679 145.436 65.3423 145.593C64.9167 145.751 64.5438 145.951 64.2235 146.192V151.582H62.2755V140.671ZM73.1211 147.673C73.1211 147.147 73.2286 146.644 73.4436 146.166C73.6585 145.683 73.9679 145.258 74.3715 144.889C74.7751 144.521 75.2687 144.227 75.8522 144.007C76.4401 143.788 77.107 143.678 77.8529 143.678C78.5943 143.678 79.2612 143.79 79.8535 144.014C80.4502 144.233 80.9547 144.536 81.3672 144.922C81.784 145.308 82.102 145.762 82.3214 146.284C82.5452 146.807 82.657 147.366 82.657 147.963C82.657 148.037 82.6548 148.118 82.6505 148.206C82.6505 148.289 82.6461 148.366 82.6373 148.436H75.2928C75.3762 148.669 75.51 148.882 75.6943 149.075C75.8829 149.268 76.1177 149.435 76.3985 149.575C76.6793 149.715 77.0039 149.825 77.3725 149.904C77.741 149.979 78.149 150.016 78.5965 150.016C79.044 150.016 79.4894 149.97 79.9325 149.878C80.3756 149.781 80.799 149.661 81.2026 149.516L81.8607 151.003C81.6063 151.122 81.3474 151.227 81.0842 151.319C80.8253 151.407 80.5533 151.481 80.2681 151.543C79.9873 151.6 79.6912 151.644 79.3797 151.674C79.0726 151.705 78.7479 151.72 78.4057 151.72C77.5326 151.72 76.767 151.615 76.1089 151.405C75.4508 151.194 74.9002 150.907 74.457 150.542C74.0139 150.178 73.6805 149.75 73.4567 149.259C73.233 148.768 73.1211 148.239 73.1211 147.673ZM80.5906 146.916C80.5204 146.701 80.4107 146.502 80.2615 146.317C80.1168 146.129 79.9347 145.966 79.7153 145.83C79.4959 145.69 79.2415 145.58 78.9519 145.501C78.6623 145.422 78.3443 145.383 77.9977 145.383C77.6291 145.383 77.2935 145.425 76.9908 145.508C76.688 145.591 76.4226 145.703 76.1944 145.844C75.9663 145.984 75.7755 146.146 75.6219 146.331C75.4727 146.515 75.363 146.71 75.2928 146.916H80.5906ZM84.7564 143.817H86.7044V144.935C87.1344 144.615 87.5884 144.339 88.0667 144.106C88.5449 143.874 89.0209 143.696 89.4948 143.573L90.0673 145.357C89.3171 145.431 88.6568 145.6 88.0864 145.863C87.5204 146.122 87.0598 146.488 86.7044 146.962V151.582H84.7564V143.817ZM91.1532 147.673C91.1532 147.147 91.2607 146.644 91.4757 146.166C91.6906 145.683 91.9999 145.258 92.4036 144.889C92.8072 144.521 93.3008 144.227 93.8843 144.007C94.4722 143.788 95.1391 143.678 95.885 143.678C96.6264 143.678 97.2933 143.79 97.8856 144.014C98.4823 144.233 98.9868 144.536 99.3992 144.922C99.816 145.308 100.134 145.762 100.354 146.284C100.577 146.807 100.689 147.366 100.689 147.963C100.689 148.037 100.687 148.118 100.683 148.206C100.683 148.289 100.678 148.366 100.669 148.436H93.3249C93.4083 148.669 93.5421 148.882 93.7264 149.075C93.915 149.268 94.1498 149.435 94.4306 149.575C94.7113 149.715 95.036 149.825 95.4045 149.904C95.7731 149.979 96.1811 150.016 96.6286 150.016C97.0761 150.016 97.5215 149.97 97.9646 149.878C98.4077 149.781 98.8311 149.661 99.2347 149.516L99.8928 151.003C99.6384 151.122 99.3795 151.227 99.1163 151.319C98.8574 151.407 98.5854 151.481 98.3002 151.543C98.0194 151.6 97.7233 151.644 97.4118 151.674C97.1047 151.705 96.78 151.72 96.4378 151.72C95.5647 151.72 94.7991 151.615 94.141 151.405C93.4829 151.194 92.9323 150.907 92.4891 150.542C92.046 150.178 91.7126 149.75 91.4888 149.259C91.2651 148.768 91.1532 148.239 91.1532 147.673ZM98.6227 146.916C98.5525 146.701 98.4428 146.502 98.2936 146.317C98.1488 146.129 97.9668 145.966 97.7474 145.83C97.528 145.69 97.2736 145.58 96.984 145.501C96.6944 145.422 96.3764 145.383 96.0297 145.383C95.6612 145.383 95.3256 145.425 95.0228 145.508C94.7201 145.591 94.4547 145.703 94.2265 145.844C93.9984 145.984 93.8075 146.146 93.654 146.331C93.5048 146.515 93.3951 146.71 93.3249 146.916H98.6227ZM107.244 141.296H109.343V151.582H107.244V141.296ZM111.166 147.732C111.166 147.114 111.282 146.556 111.515 146.061C111.748 145.561 112.068 145.135 112.476 144.784C112.888 144.429 113.375 144.157 113.937 143.968C114.503 143.775 115.115 143.678 115.773 143.678C116.054 143.678 116.33 143.696 116.602 143.731C116.879 143.766 117.142 143.814 117.392 143.876C117.646 143.937 117.883 144.012 118.103 144.1C118.326 144.183 118.524 144.275 118.695 144.376V140.664H120.643V151.582H118.695V150.852C118.524 150.97 118.322 151.082 118.089 151.187C117.857 151.293 117.607 151.385 117.339 151.464C117.072 151.543 116.793 151.604 116.503 151.648C116.218 151.696 115.935 151.72 115.654 151.72C114.996 151.72 114.391 151.624 113.838 151.431C113.29 151.238 112.818 150.966 112.423 150.615C112.028 150.264 111.719 149.845 111.495 149.358C111.276 148.866 111.166 148.325 111.166 147.732ZM113.213 147.732C113.213 148.044 113.274 148.338 113.397 148.614C113.524 148.891 113.704 149.134 113.937 149.345C114.174 149.551 114.457 149.715 114.786 149.838C115.119 149.957 115.492 150.016 115.905 150.016C116.168 150.016 116.431 149.992 116.694 149.944C116.958 149.891 117.21 149.818 117.451 149.726C117.697 149.634 117.925 149.522 118.136 149.391C118.351 149.259 118.537 149.112 118.695 148.95V146.258C118.497 146.1 118.289 145.966 118.07 145.857C117.85 145.747 117.627 145.657 117.398 145.587C117.17 145.517 116.94 145.466 116.707 145.436C116.475 145.4 116.249 145.383 116.03 145.383C115.582 145.383 115.183 145.444 114.832 145.567C114.485 145.686 114.191 145.85 113.95 146.061C113.713 146.271 113.531 146.519 113.404 146.804C113.277 147.09 113.213 147.399 113.213 147.732ZM122.663 147.673C122.663 147.147 122.771 146.644 122.986 146.166C123.201 145.683 123.51 145.258 123.914 144.889C124.317 144.521 124.811 144.227 125.394 144.007C125.982 143.788 126.649 143.678 127.395 143.678C128.137 143.678 128.803 143.79 129.396 144.014C129.992 144.233 130.497 144.536 130.909 144.922C131.326 145.308 131.644 145.762 131.864 146.284C132.087 146.807 132.199 147.366 132.199 147.963C132.199 148.037 132.197 148.118 132.193 148.206C132.193 148.289 132.188 148.366 132.179 148.436H124.835C124.918 148.669 125.052 148.882 125.236 149.075C125.425 149.268 125.66 149.435 125.941 149.575C126.221 149.715 126.546 149.825 126.915 149.904C127.283 149.979 127.691 150.016 128.139 150.016C128.586 150.016 129.032 149.97 129.475 149.878C129.918 149.781 130.341 149.661 130.745 149.516L131.403 151.003C131.148 151.122 130.89 151.227 130.626 151.319C130.368 151.407 130.095 151.481 129.81 151.543C129.53 151.6 129.233 151.644 128.922 151.674C128.615 151.705 128.29 151.72 127.948 151.72C127.075 151.72 126.309 151.615 125.651 151.405C124.993 151.194 124.442 150.907 123.999 150.542C123.556 150.178 123.223 149.75 122.999 149.259C122.775 148.768 122.663 148.239 122.663 147.673ZM130.133 146.916C130.063 146.701 129.953 146.502 129.804 146.317C129.659 146.129 129.477 145.966 129.257 145.83C129.038 145.69 128.784 145.58 128.494 145.501C128.205 145.422 127.886 145.383 127.54 145.383C127.171 145.383 126.836 145.425 126.533 145.508C126.23 145.591 125.965 145.703 125.737 145.844C125.508 145.984 125.318 146.146 125.164 146.331C125.015 146.515 124.905 146.71 124.835 146.916H130.133ZM133.93 149.134C133.93 148.761 134.011 148.421 134.174 148.114C134.336 147.807 134.579 147.544 134.904 147.324C135.229 147.101 135.632 146.929 136.115 146.811C136.602 146.688 137.168 146.627 137.813 146.627C138.291 146.627 138.793 146.662 139.32 146.732C139.851 146.802 140.397 146.91 140.959 147.054C140.937 146.809 140.862 146.583 140.735 146.377C140.608 146.166 140.43 145.986 140.202 145.837C139.978 145.683 139.706 145.565 139.386 145.482C139.07 145.398 138.71 145.357 138.306 145.357C138.087 145.357 137.846 145.37 137.583 145.396C137.319 145.422 137.047 145.462 136.766 145.514C136.486 145.567 136.207 145.633 135.931 145.712C135.659 145.791 135.404 145.885 135.167 145.995L134.575 144.396C134.869 144.29 135.183 144.194 135.516 144.106C135.854 144.018 136.198 143.944 136.549 143.882C136.9 143.817 137.251 143.766 137.602 143.731C137.953 143.696 138.293 143.678 138.622 143.678C140.075 143.678 141.154 144.049 141.86 144.791C142.567 145.532 142.92 146.668 142.92 148.2V151.582H140.972V150.852C140.77 150.97 140.548 151.082 140.307 151.187C140.07 151.293 139.811 151.385 139.531 151.464C139.25 151.543 138.947 151.604 138.622 151.648C138.302 151.696 137.962 151.72 137.602 151.72C136.997 151.72 136.464 151.655 136.003 151.523C135.547 151.391 135.165 151.209 134.858 150.977C134.551 150.744 134.318 150.472 134.16 150.161C134.007 149.845 133.93 149.503 133.93 149.134ZM135.983 149.068C135.983 149.195 136.016 149.318 136.082 149.437C136.148 149.551 136.253 149.654 136.398 149.746C136.543 149.834 136.727 149.906 136.951 149.963C137.179 150.016 137.453 150.042 137.773 150.042C138.116 150.042 138.447 150.012 138.767 149.95C139.087 149.889 139.386 149.808 139.662 149.707C139.939 149.606 140.189 149.489 140.412 149.358C140.636 149.226 140.823 149.09 140.972 148.95V148.608C140.673 148.524 140.377 148.454 140.083 148.397C139.794 148.34 139.515 148.296 139.248 148.265C138.984 148.23 138.734 148.206 138.497 148.193C138.265 148.18 138.061 148.173 137.885 148.173C137.521 148.173 137.218 148.197 136.977 148.246C136.736 148.294 136.541 148.36 136.391 148.443C136.242 148.522 136.137 148.616 136.075 148.726C136.014 148.836 135.983 148.95 135.983 149.068ZM145.809 149.2C146.335 149.516 146.914 149.748 147.546 149.897C148.178 150.047 148.825 150.121 149.488 150.121C149.935 150.121 150.308 150.091 150.606 150.029C150.905 149.968 151.144 149.889 151.324 149.792C151.504 149.696 151.631 149.586 151.705 149.463C151.78 149.34 151.817 149.215 151.817 149.088C151.817 148.904 151.736 148.746 151.574 148.614C151.416 148.483 151.153 148.417 150.784 148.417C150.613 148.417 150.429 148.428 150.231 148.45C150.034 148.472 149.825 148.496 149.606 148.522C149.391 148.544 149.165 148.566 148.928 148.588C148.696 148.61 148.459 148.621 148.218 148.621C147.691 148.621 147.241 148.564 146.868 148.45C146.5 148.336 146.199 148.18 145.967 147.982C145.734 147.785 145.565 147.552 145.46 147.285C145.355 147.013 145.302 146.721 145.302 146.41C145.302 146.015 145.394 145.65 145.579 145.317C145.763 144.984 146.026 144.696 146.368 144.455C146.71 144.209 147.123 144.018 147.605 143.882C148.092 143.746 148.634 143.678 149.231 143.678C149.543 143.678 149.867 143.698 150.205 143.738C150.547 143.773 150.883 143.821 151.212 143.882C151.541 143.944 151.857 144.016 152.16 144.1C152.462 144.179 152.73 144.264 152.962 144.356L152.35 145.87C151.855 145.686 151.359 145.541 150.863 145.436C150.372 145.326 149.865 145.271 149.343 145.271C148.979 145.271 148.669 145.299 148.415 145.357C148.165 145.409 147.961 145.482 147.803 145.574C147.645 145.661 147.529 145.765 147.454 145.883C147.384 145.997 147.349 146.118 147.349 146.245C147.349 146.337 147.366 146.42 147.401 146.495C147.441 146.57 147.502 146.635 147.586 146.692C147.673 146.745 147.785 146.787 147.921 146.818C148.062 146.844 148.233 146.857 148.435 146.857C148.619 146.857 148.814 146.846 149.02 146.824C149.227 146.802 149.442 146.78 149.665 146.758C149.889 146.732 150.119 146.708 150.356 146.686C150.598 146.664 150.843 146.653 151.093 146.653C151.559 146.653 151.964 146.708 152.311 146.818C152.662 146.927 152.951 147.081 153.18 147.278C153.408 147.476 153.579 147.708 153.693 147.976C153.807 148.243 153.864 148.535 153.864 148.851C153.864 149.259 153.77 149.639 153.581 149.99C153.392 150.341 153.112 150.646 152.739 150.904C152.366 151.159 151.901 151.358 151.344 151.503C150.791 151.648 150.15 151.72 149.422 151.72C148.974 151.72 148.542 151.692 148.125 151.635C147.709 151.582 147.312 151.51 146.934 151.418C146.557 151.321 146.202 151.209 145.868 151.082C145.539 150.955 145.238 150.819 144.966 150.674L145.809 149.2ZM163.44 143.126H159.642V141.296H169.323V143.126H165.526V151.582H163.44V143.126ZM170.942 149.134C170.942 148.761 171.023 148.421 171.185 148.114C171.348 147.807 171.591 147.544 171.916 147.324C172.241 147.101 172.644 146.929 173.127 146.811C173.614 146.688 174.18 146.627 174.825 146.627C175.303 146.627 175.805 146.662 176.332 146.732C176.863 146.802 177.409 146.91 177.97 147.054C177.949 146.809 177.874 146.583 177.747 146.377C177.619 146.166 177.442 145.986 177.214 145.837C176.99 145.683 176.718 145.565 176.398 145.482C176.082 145.398 175.722 145.357 175.318 145.357C175.099 145.357 174.858 145.37 174.594 145.396C174.331 145.422 174.059 145.462 173.778 145.514C173.498 145.567 173.219 145.633 172.943 145.712C172.671 145.791 172.416 145.885 172.179 145.995L171.587 144.396C171.881 144.29 172.194 144.194 172.528 144.106C172.866 144.018 173.21 143.944 173.561 143.882C173.912 143.817 174.263 143.766 174.614 143.731C174.965 143.696 175.305 143.678 175.634 143.678C177.086 143.678 178.166 144.049 178.872 144.791C179.578 145.532 179.932 146.668 179.932 148.2V151.582H177.984V150.852C177.782 150.97 177.56 151.082 177.319 151.187C177.082 151.293 176.823 151.385 176.542 151.464C176.262 151.543 175.959 151.604 175.634 151.648C175.314 151.696 174.974 151.72 174.614 151.72C174.009 151.72 173.476 151.655 173.015 151.523C172.559 151.391 172.177 151.209 171.87 150.977C171.563 150.744 171.33 150.472 171.172 150.161C171.019 149.845 170.942 149.503 170.942 149.134ZM172.995 149.068C172.995 149.195 173.028 149.318 173.094 149.437C173.16 149.551 173.265 149.654 173.41 149.746C173.555 149.834 173.739 149.906 173.963 149.963C174.191 150.016 174.465 150.042 174.785 150.042C175.127 150.042 175.459 150.012 175.779 149.95C176.099 149.889 176.398 149.808 176.674 149.707C176.95 149.606 177.2 149.489 177.424 149.358C177.648 149.226 177.834 149.09 177.984 148.95V148.608C177.685 148.524 177.389 148.454 177.095 148.397C176.806 148.34 176.527 148.296 176.259 148.265C175.996 148.23 175.746 148.206 175.509 148.193C175.277 148.18 175.073 148.173 174.897 148.173C174.533 148.173 174.23 148.197 173.989 148.246C173.748 148.294 173.552 148.36 173.403 148.443C173.254 148.522 173.149 148.616 173.087 148.726C173.026 148.836 172.995 148.95 172.995 149.068ZM182.518 140.664H184.466V147.114L188.099 143.817H191.08L187.019 147.449L191.337 151.582H188.415L185.526 148.785L184.466 149.733V151.582H182.518V140.664ZM192.251 147.673C192.251 147.147 192.359 146.644 192.574 146.166C192.789 145.683 193.098 145.258 193.502 144.889C193.905 144.521 194.399 144.227 194.982 144.007C195.57 143.788 196.237 143.678 196.983 143.678C197.725 143.678 198.391 143.79 198.984 144.014C199.58 144.233 200.085 144.536 200.497 144.922C200.914 145.308 201.232 145.762 201.452 146.284C201.675 146.807 201.787 147.366 201.787 147.963C201.787 148.037 201.785 148.118 201.781 148.206C201.781 148.289 201.776 148.366 201.768 148.436H194.423C194.506 148.669 194.64 148.882 194.825 149.075C195.013 149.268 195.248 149.435 195.529 149.575C195.81 149.715 196.134 149.825 196.503 149.904C196.871 149.979 197.279 150.016 197.727 150.016C198.174 150.016 198.62 149.97 199.063 149.878C199.506 149.781 199.929 149.661 200.333 149.516L200.991 151.003C200.737 151.122 200.478 151.227 200.214 151.319C199.956 151.407 199.684 151.481 199.398 151.543C199.118 151.6 198.821 151.644 198.51 151.674C198.203 151.705 197.878 151.72 197.536 151.72C196.663 151.72 195.897 151.615 195.239 151.405C194.581 151.194 194.03 150.907 193.587 150.542C193.144 150.178 192.811 149.75 192.587 149.259C192.363 148.768 192.251 148.239 192.251 147.673ZM199.721 146.916C199.651 146.701 199.541 146.502 199.392 146.317C199.247 146.129 199.065 145.966 198.846 145.83C198.626 145.69 198.372 145.58 198.082 145.501C197.793 145.422 197.475 145.383 197.128 145.383C196.759 145.383 196.424 145.425 196.121 145.508C195.818 145.591 195.553 145.703 195.325 145.844C195.097 145.984 194.906 146.146 194.752 146.331C194.603 146.515 194.493 146.71 194.423 146.916H199.721ZM208.605 141.296H217.806V143.126H210.691V145.817H216.733V147.535H210.691V151.582H208.605V141.296ZM219.629 140.664H221.577V151.582H219.629V140.664ZM225.104 142.757C224.911 142.757 224.735 142.731 224.578 142.678C224.424 142.621 224.292 142.546 224.183 142.454C224.073 142.358 223.987 142.248 223.926 142.125C223.869 141.998 223.84 141.864 223.84 141.724C223.84 141.579 223.869 141.445 223.926 141.322C223.987 141.195 224.073 141.085 224.183 140.993C224.292 140.901 224.424 140.829 224.578 140.776C224.735 140.719 224.911 140.691 225.104 140.691C225.301 140.691 225.477 140.719 225.63 140.776C225.788 140.829 225.922 140.901 226.032 140.993C226.142 141.085 226.225 141.195 226.282 141.322C226.343 141.445 226.374 141.579 226.374 141.724C226.374 141.864 226.343 141.998 226.282 142.125C226.225 142.248 226.142 142.358 226.032 142.454C225.922 142.546 225.788 142.621 225.63 142.678C225.477 142.731 225.301 142.757 225.104 142.757ZM224.13 143.817H226.078V151.582H224.13V143.817ZM229.796 152.898C230.042 152.986 230.292 153.059 230.547 153.116C230.801 153.177 231.047 153.225 231.284 153.26C231.525 153.3 231.755 153.326 231.975 153.339C232.194 153.357 232.389 153.366 232.56 153.366C233.078 153.366 233.528 153.302 233.909 153.175C234.296 153.052 234.616 152.885 234.87 152.675C235.129 152.464 235.322 152.218 235.449 151.938C235.577 151.661 235.64 151.367 235.64 151.056V150.72C235.474 150.834 235.278 150.944 235.055 151.049C234.831 151.154 234.585 151.247 234.317 151.326C234.05 151.405 233.765 151.468 233.462 151.516C233.164 151.565 232.854 151.589 232.534 151.589C231.898 151.589 231.31 151.494 230.77 151.306C230.231 151.113 229.763 150.845 229.369 150.503C228.974 150.156 228.664 149.742 228.441 149.259C228.221 148.776 228.112 148.241 228.112 147.653C228.112 147.052 228.228 146.508 228.46 146.021C228.693 145.53 229.013 145.111 229.421 144.764C229.834 144.418 230.321 144.15 230.882 143.961C231.444 143.773 232.054 143.678 232.712 143.678C232.992 143.678 233.271 143.696 233.547 143.731C233.824 143.766 234.087 143.814 234.337 143.876C234.592 143.937 234.829 144.012 235.048 144.1C235.272 144.183 235.469 144.275 235.64 144.376V143.817H237.588V150.694C237.588 151.4 237.481 152.025 237.266 152.569C237.051 153.113 236.735 153.57 236.318 153.938C235.906 154.311 235.392 154.592 234.778 154.781C234.164 154.974 233.46 155.07 232.666 155.07C232.38 155.07 232.084 155.057 231.777 155.031C231.47 155.009 231.161 154.974 230.849 154.925C230.542 154.882 230.237 154.827 229.934 154.761C229.636 154.699 229.349 154.627 229.072 154.544L229.796 152.898ZM230.158 147.634C230.158 147.945 230.22 148.239 230.343 148.515C230.47 148.787 230.65 149.027 230.882 149.233C231.115 149.435 231.395 149.595 231.725 149.713C232.054 149.827 232.424 149.884 232.837 149.884C233.104 149.884 233.37 149.86 233.633 149.812C233.901 149.759 234.155 149.687 234.396 149.595C234.642 149.503 234.87 149.391 235.081 149.259C235.296 149.127 235.482 148.981 235.64 148.818V146.258C235.443 146.1 235.234 145.966 235.015 145.857C234.796 145.747 234.572 145.657 234.344 145.587C234.116 145.517 233.885 145.466 233.653 145.436C233.42 145.4 233.194 145.383 232.975 145.383C232.527 145.383 232.128 145.442 231.777 145.561C231.431 145.679 231.137 145.841 230.895 146.048C230.658 146.249 230.476 146.486 230.349 146.758C230.222 147.03 230.158 147.322 230.158 147.634ZM239.806 140.671H241.754V144.409C242.162 144.185 242.616 144.007 243.116 143.876C243.621 143.744 244.15 143.678 244.702 143.678C245.343 143.678 245.918 143.773 246.427 143.961C246.94 144.15 247.374 144.422 247.73 144.777C248.085 145.128 248.357 145.556 248.546 146.061C248.739 146.565 248.835 147.133 248.835 147.765V151.582H246.894V147.844C246.894 147.476 246.835 147.14 246.716 146.837C246.598 146.53 246.424 146.267 246.196 146.048C245.968 145.828 245.69 145.659 245.36 145.541C245.036 145.418 244.667 145.357 244.255 145.357C243.759 145.357 243.298 145.436 242.873 145.593C242.447 145.751 242.074 145.951 241.754 146.192V151.582H239.806V140.671ZM252.192 145.278H250.316V143.817H252.192V141.401H254.14V143.817H256.015V145.278H254.14V151.582H252.192V145.278ZM257.786 150.437C257.786 150.262 257.823 150.097 257.897 149.944C257.972 149.79 258.075 149.656 258.207 149.542C258.343 149.424 258.505 149.331 258.694 149.266C258.887 149.2 259.102 149.167 259.339 149.167C259.593 149.167 259.826 149.209 260.036 149.292C260.251 149.371 260.435 149.487 260.589 149.641C260.743 149.794 260.861 149.983 260.944 150.207C261.032 150.426 261.076 150.674 261.076 150.95C261.076 151.573 260.861 152.17 260.431 152.74C260.006 153.315 259.385 153.824 258.569 154.267L257.779 153.149C257.994 153.034 258.183 152.92 258.345 152.806C258.507 152.697 258.65 152.585 258.773 152.471C258.896 152.357 259.001 152.238 259.089 152.115C259.181 151.992 259.262 151.861 259.332 151.72C259.1 151.72 258.887 151.685 258.694 151.615C258.505 151.549 258.343 151.459 258.207 151.345C258.071 151.231 257.965 151.097 257.891 150.944C257.821 150.786 257.786 150.617 257.786 150.437ZM272.198 141.296H274.284V146.962C274.284 147.427 274.348 147.842 274.475 148.206C274.602 148.566 274.791 148.871 275.041 149.121C275.296 149.371 275.609 149.562 275.982 149.693C276.355 149.821 276.789 149.884 277.285 149.884C277.777 149.884 278.209 149.821 278.582 149.693C278.959 149.562 279.273 149.371 279.523 149.121C279.777 148.871 279.968 148.566 280.095 148.206C280.223 147.842 280.286 147.427 280.286 146.962V141.296H282.372V147.212C282.372 147.888 282.258 148.502 282.03 149.055C281.802 149.608 281.471 150.082 281.036 150.477C280.602 150.871 280.069 151.176 279.437 151.391C278.81 151.606 278.092 151.714 277.285 151.714C276.478 151.714 275.758 151.606 275.127 151.391C274.499 151.176 273.968 150.871 273.534 150.477C273.1 150.082 272.768 149.608 272.54 149.055C272.312 148.502 272.198 147.888 272.198 147.212V141.296ZM284.676 143.817H286.624V144.475C287.141 144.181 287.635 143.975 288.104 143.856C288.578 143.738 289.041 143.678 289.493 143.678C290.085 143.678 290.634 143.766 291.138 143.942C291.643 144.113 292.079 144.369 292.448 144.712C292.816 145.054 293.104 145.482 293.31 145.995C293.521 146.504 293.626 147.094 293.626 147.765V151.582H291.685V148.081C291.685 147.656 291.623 147.276 291.5 146.943C291.382 146.605 291.209 146.322 290.98 146.094C290.757 145.861 290.482 145.686 290.158 145.567C289.837 145.444 289.478 145.383 289.078 145.383C288.868 145.383 288.651 145.405 288.427 145.449C288.208 145.493 287.99 145.556 287.775 145.64C287.565 145.718 287.361 145.819 287.163 145.942C286.966 146.061 286.786 146.197 286.624 146.35V151.582H284.676V143.817ZM296.074 140.664H298.022V151.582H296.074V140.664ZM300.154 147.673C300.154 147.147 300.262 146.644 300.477 146.166C300.692 145.683 301.001 145.258 301.405 144.889C301.808 144.521 302.302 144.227 302.885 144.007C303.473 143.788 304.14 143.678 304.886 143.678C305.628 143.678 306.294 143.79 306.887 144.014C307.483 144.233 307.988 144.536 308.4 144.922C308.817 145.308 309.135 145.762 309.355 146.284C309.578 146.807 309.69 147.366 309.69 147.963C309.69 148.037 309.688 148.118 309.684 148.206C309.684 148.289 309.679 148.366 309.671 148.436H302.326C302.409 148.669 302.543 148.882 302.728 149.075C302.916 149.268 303.151 149.435 303.432 149.575C303.713 149.715 304.037 149.825 304.406 149.904C304.774 149.979 305.182 150.016 305.63 150.016C306.077 150.016 306.523 149.97 306.966 149.878C307.409 149.781 307.832 149.661 308.236 149.516L308.894 151.003C308.64 151.122 308.381 151.227 308.117 151.319C307.859 151.407 307.587 151.481 307.301 151.543C307.021 151.6 306.724 151.644 306.413 151.674C306.106 151.705 305.781 151.72 305.439 151.72C304.566 151.72 303.8 151.615 303.142 151.405C302.484 151.194 301.933 150.907 301.49 150.542C301.047 150.178 300.714 149.75 300.49 149.259C300.266 148.768 300.154 148.239 300.154 147.673ZM307.624 146.916C307.554 146.701 307.444 146.502 307.295 146.317C307.15 146.129 306.968 145.966 306.749 145.83C306.529 145.69 306.275 145.58 305.985 145.501C305.696 145.422 305.378 145.383 305.031 145.383C304.662 145.383 304.327 145.425 304.024 145.508C303.721 145.591 303.456 145.703 303.228 145.844C303 145.984 302.809 146.146 302.655 146.331C302.506 146.515 302.396 146.71 302.326 146.916H307.624ZM311.421 149.134C311.421 148.761 311.502 148.421 311.665 148.114C311.827 147.807 312.07 147.544 312.395 147.324C312.72 147.101 313.123 146.929 313.606 146.811C314.093 146.688 314.659 146.627 315.304 146.627C315.782 146.627 316.285 146.662 316.811 146.732C317.342 146.802 317.888 146.91 318.45 147.054C318.428 146.809 318.353 146.583 318.226 146.377C318.099 146.166 317.921 145.986 317.693 145.837C317.469 145.683 317.197 145.565 316.877 145.482C316.561 145.398 316.201 145.357 315.798 145.357C315.578 145.357 315.337 145.37 315.074 145.396C314.81 145.422 314.538 145.462 314.258 145.514C313.977 145.567 313.698 145.633 313.422 145.712C313.15 145.791 312.895 145.885 312.658 145.995L312.066 144.396C312.36 144.29 312.674 144.194 313.007 144.106C313.345 144.018 313.689 143.944 314.04 143.882C314.391 143.817 314.742 143.766 315.093 143.731C315.444 143.696 315.784 143.678 316.113 143.678C317.566 143.678 318.645 144.049 319.351 144.791C320.058 145.532 320.411 146.668 320.411 148.2V151.582H318.463V150.852C318.261 150.97 318.039 151.082 317.798 151.187C317.561 151.293 317.302 151.385 317.022 151.464C316.741 151.543 316.438 151.604 316.113 151.648C315.793 151.696 315.453 151.72 315.093 151.72C314.488 151.72 313.955 151.655 313.494 151.523C313.038 151.391 312.656 151.209 312.349 150.977C312.042 150.744 311.809 150.472 311.651 150.161C311.498 149.845 311.421 149.503 311.421 149.134ZM313.474 149.068C313.474 149.195 313.507 149.318 313.573 149.437C313.639 149.551 313.744 149.654 313.889 149.746C314.034 149.834 314.218 149.906 314.442 149.963C314.67 150.016 314.944 150.042 315.264 150.042C315.607 150.042 315.938 150.012 316.258 149.95C316.578 149.889 316.877 149.808 317.153 149.707C317.43 149.606 317.68 149.489 317.903 149.358C318.127 149.226 318.314 149.09 318.463 148.95V148.608C318.165 148.524 317.868 148.454 317.574 148.397C317.285 148.34 317.006 148.296 316.739 148.265C316.475 148.23 316.225 148.206 315.988 148.193C315.756 148.18 315.552 148.173 315.376 148.173C315.012 148.173 314.709 148.197 314.468 148.246C314.227 148.294 314.032 148.36 313.882 148.443C313.733 148.522 313.628 148.616 313.567 148.726C313.505 148.836 313.474 148.95 313.474 149.068ZM323.3 149.2C323.826 149.516 324.406 149.748 325.037 149.897C325.669 150.047 326.316 150.121 326.979 150.121C327.426 150.121 327.799 150.091 328.098 150.029C328.396 149.968 328.635 149.889 328.815 149.792C328.995 149.696 329.122 149.586 329.197 149.463C329.271 149.34 329.308 149.215 329.308 149.088C329.308 148.904 329.227 148.746 329.065 148.614C328.907 148.483 328.644 148.417 328.275 148.417C328.104 148.417 327.92 148.428 327.722 148.45C327.525 148.472 327.317 148.496 327.097 148.522C326.882 148.544 326.656 148.566 326.419 148.588C326.187 148.61 325.95 148.621 325.709 148.621C325.182 148.621 324.732 148.564 324.359 148.45C323.991 148.336 323.69 148.18 323.458 147.982C323.225 147.785 323.056 147.552 322.951 147.285C322.846 147.013 322.793 146.721 322.793 146.41C322.793 146.015 322.885 145.65 323.07 145.317C323.254 144.984 323.517 144.696 323.859 144.455C324.202 144.209 324.614 144.018 325.097 143.882C325.584 143.746 326.125 143.678 326.722 143.678C327.034 143.678 327.358 143.698 327.696 143.738C328.038 143.773 328.374 143.821 328.703 143.882C329.032 143.944 329.348 144.016 329.651 144.1C329.953 144.179 330.221 144.264 330.454 144.356L329.842 145.87C329.346 145.686 328.85 145.541 328.354 145.436C327.863 145.326 327.356 145.271 326.834 145.271C326.47 145.271 326.161 145.299 325.906 145.357C325.656 145.409 325.452 145.482 325.294 145.574C325.136 145.661 325.02 145.765 324.945 145.883C324.875 145.997 324.84 146.118 324.84 146.245C324.84 146.337 324.857 146.42 324.893 146.495C324.932 146.57 324.993 146.635 325.077 146.692C325.165 146.745 325.276 146.787 325.412 146.818C325.553 146.844 325.724 146.857 325.926 146.857C326.11 146.857 326.305 146.846 326.511 146.824C326.718 146.802 326.933 146.78 327.156 146.758C327.38 146.732 327.611 146.708 327.847 146.686C328.089 146.664 328.334 146.653 328.585 146.653C329.05 146.653 329.455 146.708 329.802 146.818C330.153 146.927 330.443 147.081 330.671 147.278C330.899 147.476 331.07 147.708 331.184 147.976C331.298 148.243 331.355 148.535 331.355 148.851C331.355 149.259 331.261 149.639 331.072 149.99C330.884 150.341 330.603 150.646 330.23 150.904C329.857 151.159 329.392 151.358 328.835 151.503C328.282 151.648 327.641 151.72 326.913 151.72C326.465 151.72 326.033 151.692 325.616 151.635C325.2 151.582 324.803 151.51 324.425 151.418C324.048 151.321 323.693 151.209 323.359 151.082C323.03 150.955 322.73 150.819 322.458 150.674L323.3 149.2ZM333.112 140.671H335.06V144.409C335.468 144.185 335.922 144.007 336.423 143.876C336.927 143.744 337.456 143.678 338.009 143.678C338.649 143.678 339.224 143.773 339.733 143.961C340.246 144.15 340.681 144.422 341.036 144.777C341.391 145.128 341.663 145.556 341.852 146.061C342.045 146.565 342.142 147.133 342.142 147.765V151.582H340.2V147.844C340.2 147.476 340.141 147.14 340.022 146.837C339.904 146.53 339.731 146.267 339.503 146.048C339.274 145.828 338.996 145.659 338.667 145.541C338.342 145.418 337.974 145.357 337.561 145.357C337.065 145.357 336.605 145.436 336.179 145.593C335.753 145.751 335.381 145.951 335.06 146.192V151.582H333.112V140.671ZM352.197 149.035L347.702 141.296H350.065L353.231 147.147L356.357 141.296H358.719L354.284 149.022V151.582H352.197V149.035ZM359.588 147.699C359.588 147.142 359.7 146.62 359.924 146.133C360.152 145.646 360.474 145.221 360.891 144.856C361.312 144.492 361.819 144.205 362.411 143.994C363.008 143.784 363.677 143.678 364.418 143.678C365.16 143.678 365.827 143.784 366.419 143.994C367.016 144.205 367.522 144.492 367.939 144.856C368.36 145.221 368.683 145.646 368.907 146.133C369.135 146.62 369.249 147.142 369.249 147.699C369.249 148.257 369.135 148.779 368.907 149.266C368.683 149.753 368.36 150.178 367.939 150.542C367.522 150.907 367.016 151.194 366.419 151.405C365.827 151.615 365.16 151.72 364.418 151.72C363.677 151.72 363.008 151.615 362.411 151.405C361.819 151.194 361.312 150.907 360.891 150.542C360.474 150.178 360.152 149.753 359.924 149.266C359.7 148.779 359.588 148.257 359.588 147.699ZM361.635 147.699C361.635 148.011 361.696 148.307 361.819 148.588C361.946 148.864 362.128 149.11 362.365 149.325C362.606 149.536 362.898 149.704 363.24 149.832C363.587 149.954 363.98 150.016 364.418 150.016C364.857 150.016 365.248 149.954 365.59 149.832C365.936 149.704 366.228 149.536 366.465 149.325C366.706 149.11 366.888 148.864 367.011 148.588C367.139 148.307 367.202 148.011 367.202 147.699C367.202 147.388 367.139 147.092 367.011 146.811C366.888 146.53 366.706 146.284 366.465 146.074C366.228 145.859 365.936 145.69 365.59 145.567C365.248 145.44 364.857 145.376 364.418 145.376C363.98 145.376 363.587 145.44 363.24 145.567C362.898 145.69 362.606 145.859 362.365 146.074C362.128 146.284 361.946 146.53 361.819 146.811C361.696 147.092 361.635 147.388 361.635 147.699ZM371.217 143.81H373.158V147.601C373.158 147.96 373.198 148.289 373.276 148.588C373.355 148.882 373.489 149.134 373.678 149.345C373.871 149.555 374.125 149.72 374.441 149.838C374.762 149.952 375.159 150.009 375.632 150.009C375.856 150.009 376.082 149.985 376.31 149.937C376.543 149.889 376.764 149.823 376.975 149.74C377.186 149.652 377.381 149.549 377.561 149.43C377.745 149.312 377.903 149.182 378.035 149.042V143.81H379.983V151.582H378.035V150.918C377.556 151.203 377.076 151.407 376.593 151.53C376.111 151.652 375.652 151.714 375.218 151.714C374.507 151.714 373.897 151.628 373.388 151.457C372.884 151.286 372.469 151.038 372.145 150.714C371.824 150.384 371.59 149.983 371.44 149.509C371.291 149.031 371.217 148.487 371.217 147.877V143.81ZM382.457 143.817H384.405V144.935C384.835 144.615 385.289 144.339 385.767 144.106C386.246 143.874 386.722 143.696 387.195 143.573L387.768 145.357C387.018 145.431 386.357 145.6 385.787 145.863C385.221 146.122 384.76 146.488 384.405 146.962V151.582H382.457V143.817ZM393.316 146.377C393.316 145.644 393.454 144.962 393.73 144.33C394.007 143.694 394.406 143.143 394.928 142.678C395.455 142.209 396.095 141.84 396.85 141.572C397.609 141.305 398.467 141.171 399.423 141.171C400.261 141.171 401.029 141.257 401.726 141.428C402.428 141.594 403.08 141.851 403.681 142.198L402.72 143.777C402.54 143.659 402.332 143.553 402.095 143.461C401.862 143.369 401.612 143.292 401.345 143.231C401.081 143.165 400.807 143.115 400.522 143.079C400.241 143.044 399.963 143.027 399.686 143.027C399.019 143.027 398.425 143.11 397.903 143.277C397.381 143.439 396.94 143.67 396.58 143.968C396.225 144.262 395.953 144.615 395.764 145.027C395.58 145.436 395.488 145.885 395.488 146.377C395.488 146.886 395.584 147.353 395.777 147.778C395.97 148.204 396.249 148.572 396.613 148.884C396.981 149.191 397.429 149.432 397.955 149.608C398.486 149.779 399.085 149.865 399.752 149.865C400.055 149.865 400.355 149.843 400.654 149.799C400.952 149.755 401.239 149.696 401.516 149.621C401.797 149.542 402.066 149.45 402.325 149.345C402.584 149.235 402.825 149.117 403.049 148.989L404.01 150.569C403.448 150.928 402.799 151.211 402.062 151.418C401.325 151.62 400.542 151.72 399.713 151.72C398.655 151.72 397.727 151.584 396.929 151.312C396.13 151.036 395.463 150.659 394.928 150.18C394.393 149.698 393.989 149.132 393.717 148.483C393.45 147.829 393.316 147.127 393.316 146.377ZM406.07 143.817H408.018V144.935C408.448 144.615 408.902 144.339 409.38 144.106C409.858 143.874 410.334 143.696 410.808 143.573L411.381 145.357C410.631 145.431 409.97 145.6 409.4 145.863C408.834 146.122 408.373 146.488 408.018 146.962V151.582H406.07V143.817ZM412.467 147.673C412.467 147.147 412.574 146.644 412.789 146.166C413.004 145.683 413.313 145.258 413.717 144.889C414.121 144.521 414.614 144.227 415.198 144.007C415.786 143.788 416.453 143.678 417.198 143.678C417.94 143.678 418.607 143.79 419.199 144.014C419.796 144.233 420.3 144.536 420.713 144.922C421.13 145.308 421.448 145.762 421.667 146.284C421.891 146.807 422.003 147.366 422.003 147.963C422.003 148.037 422 148.118 421.996 148.206C421.996 148.289 421.992 148.366 421.983 148.436H414.638C414.722 148.669 414.856 148.882 415.04 149.075C415.229 149.268 415.463 149.435 415.744 149.575C416.025 149.715 416.349 149.825 416.718 149.904C417.087 149.979 417.495 150.016 417.942 150.016C418.39 150.016 418.835 149.97 419.278 149.878C419.721 149.781 420.145 149.661 420.548 149.516L421.206 151.003C420.952 151.122 420.693 151.227 420.43 151.319C420.171 151.407 419.899 151.481 419.614 151.543C419.333 151.6 419.037 151.644 418.725 151.674C418.418 151.705 418.093 151.72 417.751 151.72C416.878 151.72 416.113 151.615 415.454 151.405C414.796 151.194 414.246 150.907 413.803 150.542C413.359 150.178 413.026 149.75 412.802 149.259C412.579 148.768 412.467 148.239 412.467 147.673ZM419.936 146.916C419.866 146.701 419.756 146.502 419.607 146.317C419.462 146.129 419.28 145.966 419.061 145.83C418.842 145.69 418.587 145.58 418.297 145.501C418.008 145.422 417.69 145.383 417.343 145.383C416.975 145.383 416.639 145.425 416.336 145.508C416.034 145.591 415.768 145.703 415.54 145.844C415.312 145.984 415.121 146.146 414.967 146.331C414.818 146.515 414.709 146.71 414.638 146.916H419.936ZM423.733 149.134C423.733 148.761 423.815 148.421 423.977 148.114C424.139 147.807 424.383 147.544 424.707 147.324C425.032 147.101 425.436 146.929 425.918 146.811C426.405 146.688 426.971 146.627 427.616 146.627C428.094 146.627 428.597 146.662 429.123 146.732C429.654 146.802 430.2 146.91 430.762 147.054C430.74 146.809 430.665 146.583 430.538 146.377C430.411 146.166 430.233 145.986 430.005 145.837C429.781 145.683 429.509 145.565 429.189 145.482C428.873 145.398 428.513 145.357 428.11 145.357C427.89 145.357 427.649 145.37 427.386 145.396C427.123 145.422 426.851 145.462 426.57 145.514C426.289 145.567 426.01 145.633 425.734 145.712C425.462 145.791 425.208 145.885 424.971 145.995L424.378 144.396C424.672 144.29 424.986 144.194 425.319 144.106C425.657 144.018 426.002 143.944 426.353 143.882C426.704 143.817 427.055 143.766 427.406 143.731C427.757 143.696 428.097 143.678 428.426 143.678C429.878 143.678 430.957 144.049 431.664 144.791C432.37 145.532 432.723 146.668 432.723 148.2V151.582H430.775V150.852C430.573 150.97 430.352 151.082 430.11 151.187C429.874 151.293 429.615 151.385 429.334 151.464C429.053 151.543 428.75 151.604 428.426 151.648C428.105 151.696 427.765 151.72 427.406 151.72C426.8 151.72 426.267 151.655 425.806 151.523C425.35 151.391 424.968 151.209 424.661 150.977C424.354 150.744 424.122 150.472 423.964 150.161C423.81 149.845 423.733 149.503 423.733 149.134ZM425.787 149.068C425.787 149.195 425.82 149.318 425.885 149.437C425.951 149.551 426.057 149.654 426.201 149.746C426.346 149.834 426.53 149.906 426.754 149.963C426.982 150.016 427.256 150.042 427.577 150.042C427.919 150.042 428.25 150.012 428.57 149.95C428.891 149.889 429.189 149.808 429.466 149.707C429.742 149.606 429.992 149.489 430.216 149.358C430.44 149.226 430.626 149.09 430.775 148.95V148.608C430.477 148.524 430.181 148.454 429.887 148.397C429.597 148.34 429.319 148.296 429.051 148.265C428.788 148.23 428.538 148.206 428.301 148.193C428.068 148.18 427.864 148.173 427.689 148.173C427.324 148.173 427.022 148.197 426.78 148.246C426.539 148.294 426.344 148.36 426.195 148.443C426.046 148.522 425.94 148.616 425.879 148.726C425.817 148.836 425.787 148.95 425.787 149.068ZM436.474 145.278H434.599V143.817H436.474V141.401H438.422V143.817H440.298V145.278H438.422V151.582H436.474V145.278ZM443.055 142.757C442.862 142.757 442.687 142.731 442.529 142.678C442.375 142.621 442.244 142.546 442.134 142.454C442.024 142.358 441.939 142.248 441.877 142.125C441.82 141.998 441.792 141.864 441.792 141.724C441.792 141.579 441.82 141.445 441.877 141.322C441.939 141.195 442.024 141.085 442.134 140.993C442.244 140.901 442.375 140.829 442.529 140.776C442.687 140.719 442.862 140.691 443.055 140.691C443.253 140.691 443.428 140.719 443.582 140.776C443.74 140.829 443.874 140.901 443.983 140.993C444.093 141.085 444.176 141.195 444.233 141.322C444.295 141.445 444.326 141.579 444.326 141.724C444.326 141.864 444.295 141.998 444.233 142.125C444.176 142.248 444.093 142.358 443.983 142.454C443.874 142.546 443.74 142.621 443.582 142.678C443.428 142.731 443.253 142.757 443.055 142.757ZM442.081 143.817H444.029V151.582H442.081V143.817ZM445.457 143.81H447.715L449.735 148.483L450.262 149.792L450.788 148.483L452.809 143.81H455.066L451.387 151.582H449.136L445.457 143.81ZM457.455 142.757C457.262 142.757 457.086 142.731 456.928 142.678C456.775 142.621 456.643 142.546 456.533 142.454C456.424 142.358 456.338 142.248 456.277 142.125C456.22 141.998 456.191 141.864 456.191 141.724C456.191 141.579 456.22 141.445 456.277 141.322C456.338 141.195 456.424 141.085 456.533 140.993C456.643 140.901 456.775 140.829 456.928 140.776C457.086 140.719 457.262 140.691 457.455 140.691C457.652 140.691 457.828 140.719 457.981 140.776C458.139 140.829 458.273 140.901 458.383 140.993C458.492 141.085 458.576 141.195 458.633 141.322C458.694 141.445 458.725 141.579 458.725 141.724C458.725 141.864 458.694 141.998 458.633 142.125C458.576 142.248 458.492 142.358 458.383 142.454C458.273 142.546 458.139 142.621 457.981 142.678C457.828 142.731 457.652 142.757 457.455 142.757ZM456.481 143.817H458.429V151.582H456.481V143.817ZM462.101 145.278H460.225V143.817H462.101V141.401H464.049V143.817H465.925V145.278H464.049V151.582H462.101V145.278ZM468.583 152.556C468.785 152.688 469.005 152.804 469.241 152.905C469.478 153.006 469.724 153.089 469.979 153.155C470.237 153.221 470.501 153.269 470.768 153.3C471.036 153.335 471.301 153.353 471.565 153.353C472.46 153.353 473.148 153.159 473.631 152.773C474.118 152.392 474.361 151.817 474.361 151.049V150.786C474.19 150.904 473.997 151.014 473.782 151.115C473.572 151.211 473.344 151.295 473.098 151.365C472.857 151.435 472.6 151.49 472.328 151.53C472.06 151.565 471.788 151.582 471.512 151.582C470.92 151.582 470.389 151.497 469.919 151.326C469.454 151.15 469.059 150.896 468.735 150.562C468.414 150.224 468.169 149.81 467.998 149.318C467.826 148.827 467.741 148.265 467.741 147.634V143.817H469.682V147.094C469.682 148.033 469.86 148.726 470.215 149.174C470.575 149.617 471.141 149.838 471.913 149.838C472.457 149.838 472.938 149.744 473.355 149.555C473.776 149.362 474.111 149.117 474.361 148.818V143.817H476.309V150.694C476.309 151.435 476.204 152.078 475.994 152.622C475.783 153.17 475.476 153.625 475.072 153.984C474.673 154.344 474.182 154.612 473.598 154.787C473.015 154.967 472.352 155.057 471.611 155.057C470.887 155.057 470.211 154.98 469.584 154.827C468.956 154.673 468.382 154.465 467.859 154.201L468.583 152.556Z" fill="white"/>
<defs>
<filter id="filter0_d_130_46" x="0.586283" y="37.1941" width="522.5" height="78.8936" filterUnits="userSpaceOnUse" color-interpolation-filters="sRGB">
<feFlood flood-opacity="0" result="BackgroundImageFix"/>
<feColorMatrix in="SourceAlpha" type="matrix" values="0 0 0 0 0 0 0 0 0 0 0 0 0 0 0 0 0 0 127 0" result="hardAlpha"/>
<feOffset dy="3.66372"/>
<feGaussianBlur stdDeviation="1.83186"/>
<feComposite in2="hardAlpha" operator="out"/>
<feColorMatrix type="matrix" values="0 0 0 0 0 0 0 0 0 0 0 0 0 0 0 0 0 0 0.25 0"/>
<feBlend mode="normal" in2="BackgroundImageFix" result="effect1_dropShadow_130_46"/>
<feBlend mode="normal" in="SourceGraphic" in2="effect1_dropShadow_130_46" result="shape"/>
</filter>
</defs>
</svg>
