  <svg
          width="107"
          height="78"
          viewBox="0 0 107 78"
          fill="none"
          xmlns="http://www.w3.org/2000/svg"
        >
          <g filter="url(#filter0_d_110_33)">
            <path
              d="M10.5795 49.6748H17.5097V72.517C17.5097 72.6993 17.2817 72.9273 16.9626 72.9273H11.081C10.7619 72.9273 10.5795 72.6993 10.5795 72.517V49.6748ZM3.55817 42.699C3.28461 42.699 3.05664 42.5166 3.05664 42.2887V36.8631C3.05664 36.6807 3.28461 36.4527 3.55817 36.4527H24.4855C24.8046 36.4527 24.987 36.6807 24.987 36.8631V42.2887C24.987 42.5166 24.8046 42.699 24.4855 42.699H3.55817Z"
              fill="white"
            />
            <path
              d="M6.97576 29.3463H0V13.9358C0 13.7534 0.227966 13.5254 0.501526 13.5254H6.47424C6.79339 13.5254 6.97576 13.7534 6.97576 13.9358V28.3432V29.3463ZM27.2648 13.5254C27.5839 13.5254 27.7663 13.7534 27.7663 13.9358V49.5897C27.7663 49.772 27.5839 50 27.2648 50H21.292C21.0185 50 20.7905 49.772 20.7905 49.5897V43.161H6.97576V49.5897C6.97576 49.772 6.79339 50 6.47424 50H0.501526C0.227966 50 0 49.772 0 49.5897V36.322H6.97576V36.3676H20.7905V35.1366V28.3432V13.9358C20.7905 13.7534 21.0185 13.5254 21.292 13.5254H27.2648Z"
              fill="white"
            />
            <path
              d="M48.0405 44.6773C48.124 44.8443 47.9849 45.0112 47.7902 45.0112H43.951C43.8676 45.0112 43.7285 44.9555 43.7007 44.8443L39.3052 32.4367L34.9653 44.8443C34.9375 44.9555 34.7984 45.0112 34.6871 45.0112H30.8758C30.6255 45.0112 30.5142 44.8443 30.5976 44.6773L39.027 22.9224C39.1104 22.6999 39.4999 22.6999 39.5834 22.9224L48.0405 44.6773ZM61.6487 40.9217H65.9051V44.7608C65.9051 44.8721 65.7938 45.0112 65.599 45.0112H61.9825C56.4464 45.0112 48.9351 43.3976 48.9351 33.8833C48.9351 24.0074 56.5299 22.7555 61.9825 22.7555H65.599C65.7938 22.7555 65.9051 22.8946 65.9051 23.0059V31.7412H61.6487V26.8172C56.808 26.5668 53.2193 28.5976 53.2193 33.8833C53.2193 40.7548 58.9502 41.033 61.6487 40.9217ZM84.5059 44.5939C84.6728 44.8164 84.5338 45.0112 84.2556 45.0112H79.4706C79.4149 45.0112 79.248 44.9555 79.2202 44.9277L72.7382 36.9157C72.1819 37.4999 66.757 43.648 66.757 43.648V23.0059C66.757 22.8946 66.8961 22.7555 67.063 22.7555H70.7352C70.9021 22.7555 71.0134 22.8946 71.0134 23.0059V33.1322L79.3871 22.839C79.4149 22.8111 79.5819 22.7555 79.6375 22.7555H84.1721C84.4781 22.7555 84.6172 22.9781 84.4225 23.1728L75.5758 34.0781L84.5059 44.5939Z"
              fill="white"
            />
            <path
              d="M41.9064 55.6092H46.093L39.2965 73.1714C39.215 73.3617 38.8887 73.3617 38.78 73.1714L30.597 51.8847C30.5155 51.7216 30.6242 51.5585 30.8417 51.5585H34.539C34.6749 51.5585 34.7837 51.6129 34.8108 51.7216L39.0519 63.5747L41.9064 55.6092ZM63.9436 72.9811C64.0252 73.1442 63.8893 73.3073 63.699 73.3073H59.9473C59.8657 73.3073 59.7298 73.2529 59.7026 73.1442L55.4072 61.0192L51.1662 73.1442C51.139 73.2529 51.0031 73.3073 50.8943 73.3073H47.1699C46.9252 73.3073 46.8164 73.1442 46.898 72.9811L55.1354 51.7216C55.2169 51.5041 55.5975 51.5041 55.6791 51.7216L63.9436 72.9811ZM79.6614 72.9539C79.743 73.1442 79.6342 73.3073 79.4167 73.3073H75.5291C75.4476 73.3073 75.2845 73.2258 75.2573 73.1442L71.2881 64.5262H68.9501V73.0626C68.9501 73.1714 68.8142 73.3073 68.6511 73.3073H65.0897C64.9538 73.3073 64.8178 73.1714 64.8178 73.0626V60.5299H68.9501H72.1309C73.028 60.5299 75.3388 60.4211 75.3388 58.0288C75.3388 55.6364 72.7833 55.5005 72.1309 55.5005H68.9501H64.8178V51.8032C64.8178 51.6944 64.9538 51.5585 65.0897 51.5585H72.1309C73.3542 51.5585 79.4711 51.6129 79.4711 58.0288C79.4711 61.3455 77.6496 63.0854 75.4748 63.8738C76.8341 66.9458 78.3021 69.9362 79.6614 72.9539ZM89.3178 69.5828C89.5081 69.5828 89.6168 69.6916 89.6168 69.8275V73.0626C89.6168 73.1714 89.5081 73.3073 89.3178 73.3073H80.7542C80.591 73.3073 80.4551 73.1714 80.4551 73.0626V69.8275C80.4551 69.6916 80.591 69.5828 80.7542 69.5828H82.9834V61.8892V55.283V51.5585H87.1429V55.283V61.8892V69.5828H89.3178ZM94.5515 59.4424H98.6838V73.0626C98.6838 73.1714 98.5478 73.3073 98.3575 73.3073H94.8505C94.6602 73.3073 94.5515 73.1714 94.5515 73.0626V59.4424ZM90.3648 55.283C90.2017 55.283 90.0658 55.1742 90.0658 55.0383V51.8032C90.0658 51.6944 90.2017 51.5585 90.3648 51.5585H102.843C103.034 51.5585 103.142 51.6944 103.142 51.8032V55.0383C103.142 55.1742 103.034 55.283 102.843 55.283H90.3648Z"
              fill="white"
            />
          </g>
          <defs>
            <filter
              id="filter0_d_110_33"
              x="0"
              y="13.5254"
              width="106.696"
              height="63.3897"
              filterUnits="userSpaceOnUse"
              color-interpolation-filters="sRGB"
            >
              <feFlood flood-opacity="0" result="BackgroundImageFix" />
              <feColorMatrix
                in="SourceAlpha"
                type="matrix"
                values="0 0 0 0 0 0 0 0 0 0 0 0 0 0 0 0 0 0 127 0"
                result="hardAlpha"
              />
              <feOffset dx="2.36895" dy="2.36895" />
              <feGaussianBlur stdDeviation="0.592237" />
              <feComposite in2="hardAlpha" operator="out" />
              <feColorMatrix
                type="matrix"
                values="0 0 0 0 0 0 0 0 0 0 0 0 0 0 0 0 0 0 0.38 0"
              />
              <feBlend
                mode="normal"
                in2="BackgroundImageFix"
                result="effect1_dropShadow_110_33"
              />
              <feBlend
                mode="normal"
                in="SourceGraphic"
                in2="effect1_dropShadow_110_33"
                result="shape"
              />
            </filter>
          </defs>
        </svg>